<svg xmlns="http://www.w3.org/2000/svg" width="1024" height="1024"><path d="m227.37 704.51 1.28.01 2.13.04 1 .03 1.67.1.78.06 1.36.18 1.3.21 2.28.75.6.23 1.28.56 2.23 1.03 1.52.72 2.86 1.67 1.39.87 2.58 1.95 1.25 1.02 2.3 2.23 1.11 1.16 2.02 2.51.97 1.29 1.73 2.79.83 1.42 1.44 3.05.68 1.56 1.15 3.31 1.38 5.26.61 2.9.62 5.7.21 2.83-.17 5.47-.18 2.7-.92 5.17-.56 2.55-1.65 4.79-.91 2.33-2.35 4.33-1.26 2.1-3.01 3.79-1.58 1.82-3.65 3.16-6.14 3.97-.89.46-1.57.89-.73.44-1.17.78-.52.37-.64.58-.24.54.15.15.74.36.43.19 1.2.41.65.2 1.52.43.78.21 1.71.41 1.74.4 3.45.63.82.13 1.48.18 1.81.11h.94l1.24.06.53.06.58.32.23.21.13.76-.11 1.84-.07.81-.2 1.07-.14.46-.62.53-.39.22-1.42.2-.43.04-1.06.06-1.98.09-1.97.07-3.68-.37-1.79-.27-3.19-1.04-.64-.25-1.59-.71-.83-.38-1.82-.88-5.24-2.76-1.11-.63-1.87-.93-.9-.41-1.69-.55-.85-.24-1.8-.25-3.15-.14-2.49-.01-4.78-.58-2.35-.38-4.45-1.3-2.18-.74-4.08-1.99-1.99-1.08-3.66-2.63-1.77-1.4-3.19-3.24-1.53-1.7-2.67-3.81-1.26-1.97-2.1-4.35-2.46-7.07-.21-.78-.35-1.89-.16-.98-.25-2.19-.23-2.25-.16-5.01-.03-2.52.25-4.92.08-1.19.25-2.22.5-2.99.34-1.67.99-3.25.53-1.61 1.34-3.1.72-1.54 1.67-2.92.87-1.44 1.98-2.7 1.02-1.33 2.25-2.45 1.15-1.19 2.5-2.17 1.27-1.04 2.72-1.84 4.29-2.35 1.34-.63 2.16-.85 1.07-.37 2.35-.44.64-.09 1.49-.13.78-.05 1.86-.07.99-.03 2.35-.03 4.22-.01h1.64m488.68 21.32 2.06.26 3.9.94 1.9.53 3.55 1.47 1.73.8 3.15 1.98 1.52 1.05 2.72 2.48 1.29 1.3 2.24 2.94 2.75 4.93.39.88.65 1.89.3.97.47 2.15.22 1.11.32 2.5.33 4.25.43 8.75H686v3.59l.66 2.37.42 1.21 1.36 2.45.75 1.2 1.85 2.22 3.14 2.7.83.55 1.53.82.76.37 1.61.52.85.24 1.98.3 3.7.3 1.15.05 2.11.03h1.02l1.89-.1 1.84-.14 3.18-.71 1.53-.43 2.77-1.36 4-2.86 4.33-3.7 5.37 2.91.74.39 1.35.78.64.38 1.06.68.49.32.67.51.42.47v.18l-.32.58-.21.33-.68.81-.75.85-2.19 2.07-1.15 1.03-2.47 1.97-.6.45-1.14.78-1.51.9-1.06.54-2.29.94-1.17.45-2.49.77-2.53.72-5.49.89-2.78.34-5.74.11-2.86-.05-5.63-.73-1.48-.25-2.87-.77-1.42-.43-2.71-1.09-1.34-.59-2.52-1.4-1.24-.74-2.28-1.66-1.11-.87-2.02-1.9-.97-.98-1.7-2.11-.8-1.08-1.35-2.28-1.58-3.6-.6-1.72-.86-3.84-.37-1.95-.39-4.08-.14-2.04.08-4.05.68-5.74.4-2.02 1.12-3.74.62-1.81 1.55-3.29.83-1.6 1.97-2.86 1.05-1.38 2.41-2.43 1.25-1.16 2.84-1.99 1.47-.95 3.27-1.56 1.69-.72 3.69-1.13 6.03-1.2 2.31-.32 4.46-.19 2.2-.03m-267.07 2.06 1.83.02.88.02 1.55.05 1.49.06 2.29.23 1.05.14 1.68.43 2.19.91 1.01.54 1.97 1.33.97.69 1.81 1.56.89.8 1.59 1.69.76.85 1.28 1.7.6.84.9 1.61.4.78.44 1.41.16.67-.09 1.1-.82 1.17-.7.45-1.38.41-.67.12-1.25-.2-.6-.17-1.03-.78-1.19-1.8-.37-.91-1.37-2-.75-1.01-1.88-1.96-.98-.95-2.06-1.59-2.96-1.65-.56-.21-1.42-.33-.75-.15-1.7-.2-1.75-.16-3.92.04-1.96.08-3.72.51-.87.15-1.58.39-2.01.71-1.12.51-2.1 1.33-1.02.71-1.87 1.7-.9.9-1.62 2.04-.78 1.06-1.35 2.33-.65 1.21-1.06 2.59-.5 1.33-.76 2.81-.33 1.43-.43 3-.25 4.66v1.65l.22 3.07.13 1.5.49 2.77.27 1.35.75 2.49.42 1.21 1.03 2.21.56 1.07 1.32 1.95.69.94 1.62 1.69.84.82 1.91 1.45 3.2 1.9 1.44.74 3.55 1.03 1.84.44 3.94.43 1.97.13 3.76-.21.91-.1 1.68-.31 2.26-.68.98-.38 2-1.22 1-.67 1.9-1.7.93-.89 1.66-2.02 2.06-3.25.4-.78.67-1.09.33-.47.65-.56.34-.21.84-.14 1.68.12.5.07.83.23.39.13.57.33.26.18.32.43.19.77v.32l-.24.88-.15.47-.51 1.1-.56 1.15-1.66 2.61-.89 1.31-1.98 2.42-.5.56-.96.98-1.37 1.15-.79.56-1.76 1.01-.9.49-1.95.85-2 .8-4.41 1.09-2.24.45-4.69.33-2.35.07-4.66-.49-1.35-.2-2.6-.66-1.28-.37-2.45-.97-1.2-.52-2.27-1.27-1.11-.67-2.07-1.55-1.01-.81-1.86-1.81-.9-.93-1.61-2.06-.77-1.05-1.36-2.28-1.7-3.66-.37-.92-.6-2.13-.28-1.1-.43-2.4-.4-2.45-.28-5.35-.06-2.69.4-5.29.15-1.28.41-2.43.83-3.34.62-2 1.83-3.77 1-1.83 2.51-3.33 1.33-1.59 3.07-2.73 5.07-3.24 1.32-.65 2.11-.89 1.04-.38 2.09-.47 1.11-.2 2.82-.18.78-.03 1.82-.03 3.22-.02m-93.49.9.59.16.06.04.12.78.06.49.1 1.59.05.89.09 2.3.04 1.22.08 2.88.04 1.5.07 3.35.03 1.71.05 3.69.04 3.75.06 8.02.01 4.01-.01 7.84-.01 1.91-.02 3.61-.02 1.76-.04 3.24-.03 1.56-.06 2.75-.03 1.3-.08 2.13-.04.98-.1 1.41-.17 1.15-.17.46-1.05.67-2.17.45h-.54l-.84-.12-.38-.09-.58-.33-.26-.2-.39-.59-.44-1.26-.18-.71-.1-1.67.24-2.12.21-.67.06-.78-.05-.29-.56.03-.18.06-.51.27-.28.17-.71.5-.39.27-.92.72-1.66 1.33-1.66 1.36-3.69 2.12-1.91.96-4.13 1.29-2.11.55-4.49.45-2.28.12-4.77-.4-1.14-.15-2.1-.41-1.03-.22-1.88-.57-.91-.3-1.68-.75-.82-.4-1.5-.93-1.45-.99-2.47-2.6-.59-.71-1.08-1.59-1.52-2.66-.56-1.1-.82-2.03-.38-1.04-.54-2.36-.12-.64-.22-1.44-.1-.75-.19-1.73-.09-.9-.17-2.09-.25-3.61-.11-1.72-.2-4.14-.1-2.14-.17-4.57-.07-2.29-.11-4.45-.08-5.94-.01-1.51v-3.67l.03-1.9.01-.88.07-1.38.03-.63.12-.95.06-.42.18-.59.1-.26.25-.32 1.11-.36.55-.04 1.38-.09 1.82-.13.2-.01.34.11.16.08.27.42.12.26.21.87.1.5.16 1.47.08.82.13 2.22.06 1.21.12 3.1.02.84.06 1.87.03.96.05 2.14.03 1.1.05 2.43.09 3.99.04 1.55.06 2.84.03 1.37.07 2.51.03 1.21.07 2.2.03 1.06.07 1.92.08 1.85.18 2.98.1 1.38.26 2.21.14 1.02.35 1.64.2.77.49 1.29 2.08 3.57.78 1.12 2.19 1.81 1.18.84 2.83 1.24 1.47.54 3.26.67 1.67.26 3.49.09 1.75-.02 3.51-.48 1.73-.3 3.31-1.04 1.61-.59 2.91-1.6 3.68-3.03.98-1.07 1.35-2.23.29-.62.47-1.5.22-.8.32-1.99.15-1.06.21-2.65.09-1.43.12-3.49.02-.93.04-2.06.01-1.06.03-2.33v-1.19l.01-2.63.01-4.28v-23.31l3.1-.62.86-.17 1.6-.11h.36m242.91-24.29 2.64.06 5.53.2 2.76.11 5.4.28 2.64.16 4.79.35 1.13.09 2.07.19 1 .1 1.75.2.83.1 1.36.21 1.55.32 2.18.59 4 1.51 1.94.81 3.53 1.97 1.71 1.04 3.07 2.42 1.48 1.27 2.61 2.87 1.25 1.5 2.14 3.33 1.02 1.72 1.68 3.79.78 1.95 1.22 4.25 1.31 6.88.45 3.35.21 6.34v3.11l-.68 5.83-.44 2.85-1.53 5.26-.87 2.56-2.36 4.64-1.28 2.24-3.16 3.98-1.67 1.9-3.93 3.26-1.03.77-2.19 1.39-1.12.67-2.38 1.19-1.21.58-2.55.99-4.03 1.25-.38.09-1.19.2-.65.1-1.69.19-.9.1-2.11.19-1.1.09-2.46.18-2.53.18-5.76.31-2.94.15-6.13.25-3.05.11-5.87.15-1.42.03-2.69.04-1.31.01-2.4.01h-1.16l-2.05-.03-.97-.01-1.61-.07-.74-.04-1.1-.1-.47-.06-.5-.14-.12-.06-.21-.6-.1-.39-.18-1.36-.08-.78-.13-2.24-.07-1.24-.1-3.24-.02-.87-.05-1.97-.02-1.01-.03-2.26-.02-1.16-.03-2.56-.01-1.32-.02-2.88-.01-1.48-.02-3.22-.01-1.65-.01-3.57v-1.83l-.01-3.94V705.09l3.67-.69.41-.07 1.15-.12.63-.06 1.57-.08.83-.03 1.93-.05 1-.01 2.21-.01h2.27M498 736.54l.01 4.04v1.98l.01 3.75.01 1.82.02 3.37.01 1.62.03 2.9.01 1.39.03 2.35.01 1.1.04 1.73.02.77.03 1.02.06.62h.02l.43-.38.27-.24.89-.84.5-.46 1.31-1.24.69-.67 1.67-1.59.87-.84 1.97-1.9 1.02-.98 2.23-2.15 7.38-7.17 1.11-1.07 2.02-1.97.98-.95 1.8-1.74.87-.84 1.58-1.51.76-.74 1.39-1.31 1.34-1.27 2.18-1.99 1.01-.92 1.63-1.37.76-.62 1.22-.86.57-.38.95-.47 2.54-.49 1.03-.01 1.62.24.34.08.46.2.3.34v.06l-.29.39-.18.24-.63.72-.36.4-.94 1-.5.54-1.21 1.25-.64.66-1.44 1.46-.74.75-1.63 1.63-5.44 5.33-1.93 1.87-3.51 3.44-.83.82-1.54 1.53-.75.74-1.33 1.33-.63.64-1.08 1.1-.51.51-.79.83-.35.37-.46.52-.29.38v.03l.23.32.15.2.51.65.28.36.76.94.41.51.98 1.2.52.62 1.17 1.43.6.73 1.34 1.61 1.37 1.65 3.1 3.72 3.19 3.82 6.9 8.18 1.7 2 3.22 3.79 4.37 5.1.48.54.5.74.17.31-.25.34-.23.13-1.18.04-.36-.01-.93-.04-.49-.03-1.22-.09-1.04-.07-1.62-.41-.42-.17-.89-.56-.47-.33-1.1-.98-.58-.55-1.44-1.52-.77-.84-1.91-2.19-.52-.6-1.13-1.34-.59-.69-1.31-1.55-.67-.8-1.49-1.78-2.45-2.94-14.18-17.02L498 774.44V796h-7l-.22-39.5-.03-5.43-.05-10.4-.02-2.52-.02-4.77-.02-2.32-.02-4.29-.01-2.08-.02-3.68-.01-1.76-.02-2.96v-1.37l-.02-2.11-.01-2.06-.03-6.25 3.75-.31 3.75-.31M384 796h-8v-67h8m384.83-1.72 1.4.53.67.36 1.24 1.34.31.39.62.99.31.53.65 1.27.33.68.71 1.59.36.85.78 1.94.4 1.02.89 2.34.46 1.22 1.01 2.75.53 1.43 1.16 3.2 1.96 5.34.68 1.85 1.31 3.56.65 1.75 1.24 3.3.6 1.61 1.13 2.97.54 1.43.99 2.56.47 1.22.82 2.08.38.97.63 1.52.28.68.4.9.31.55h.07l.25-.3.13-.19.33-.61 1.09-2.65.09-.26.35-.97.2-.55.55-1.51.3-.82.72-1.97.37-1.04.87-2.36.44-1.22.98-2.68.5-1.37 1.07-2.93 3.42-9.32 8.53-23.25h10.05l2.39.06 1.07.05 1.44.16.62.1.64.29.17.59-1.66 3.99-3.08 7.37-1.49 3.59-2.74 6.57-1.33 3.19-2.4 5.79-1.17 2.8-2.07 5-.99 2.4-1.74 4.22-.83 2.01-1.41 3.43-.67 1.62-1.08 2.66-1.25 3.11-3.39 8.5-9.2.29-1.09.03-1.82.05-.86.02-1.38.01-.65-.01-1.02-.04-.48-.03-.73-.11-.66-.13-.74-.52-.32-.31-.44-.96-.07-.16-.41-.94-.24-.57-.73-1.71-.39-.93-1.01-2.37-.53-1.25-1.25-2.94-.65-1.53-1.45-3.42-.75-1.76-1.62-3.8-.82-1.94-1.74-4.1-2.7-6.37-13.36-31.5 6.11-.7 1.44-.16 2.33-.29 1.08-.12 1.76-.01m-547.98-17.08-1.4.03-2.58.19-1.25.12-2.31.4-1.12.23-2.1.61-1.03.34-1.94.86-.96.46-1.84 1.12-.91.59-1.79 1.4-2.7 2.42-1.47 1.44-2.42 2.86-1.13 1.46-1.82 3.07-.84 1.58-1.35 3.51-1.62 6.03-.61 2.87-.53 6-.15 3.01.34 5.96.14 1.46.43 2.84.24 1.4.64 2.67.34 1.3.84 2.45 1.46 3.34.59 1.14 1.56 2.27.84 1.12 1.97 2.19 1.03 1.08 2.29 2.04 1.17 1 2.5 1.82 1.26.88 2.61 1.53 1.3.72 2.61 1.16 1.3.54 2.5.73 3.54.53.49.02.66-.09.28-.08.3-.42.11-.27.01-.92-.02-.55-.21-1.6-.12-.9-.1-1.24-.02-.54.14-.66.11-.28.47-.26 1.12-.12h.31l.82.31.43.19 1.01.65 3.22 2.89.8.89 1.23 1.23.57.52.96.61.47.24.97.12 1.75-.21 1.24-.26 2.39-.73 1.18-.41 2.26-1.02 1.12-.55 2.12-1.3 1.04-.68 1.98-1.57.96-.81 1.82-1.83.89-.94 1.64-2.08.8-1.07 1.47-2.33 1.99-3.75.63-1.34.93-2.3.41-1.13.57-2.27.25-1.19.34-2.78.07-.75.13-1.69.16-2.89.12-2.52-.1-4.71-.1-2.3-.54-4.3-.33-2.1-1-3.88-.56-1.89-1.45-3.48-.79-1.69-1.92-3.08-1.01-1.5-2.38-2.69-1.25-1.3-2.85-2.31-4.81-3.05-1.44-.77-2.26-1.08-1.09-.47-2.12-.6-1.12-.26-2.72-.3-.76-.06-1.74-.1-3.08-.14-1.59-.06M586.26 718l-.62 3.75-.05.31-.09.91-.05.5-.08 1.26-.03.67-.07 1.57-.03.83-.06 1.84-.05 1.9-.06 4.44-.02 2.3-.01 4.98v5.05l.15 10.31.06 2.48.14 4.61.27 6.04.65 11.25h16.01l4.06-.09 1.92-.06 3.28-.22 1.55-.13 2.56-.35 1.2-.2 1.93-.49 1.74-.52 3.17-1.62 1.52-.9 2.69-2.35 1.27-1.26 2.16-3.04 2.58-5.27.48-1.3.67-2.21.29-1.09.33-2.28.13-1.2.07-2.98v-.82l-.03-1.87-.09-3.25-.06-1.55-.18-2.81-.11-1.36-.3-2.48-.17-1.2-.44-2.19-.24-1.06-.59-1.95-.63-1.89-1.77-3.27-3.56-4.49-.68-.7-1.41-1.22-.72-.58-1.55-.99-.81-.47-1.76-.79-.92-.37-2.04-.6-1.06-.28-2.39-.43-1.25-.19-2.8-.28-1.45-.12-3.28-.15-5.54-.08m103.05 18.33-1.16.12-2.17.46-1.06.27-1.95.75-.95.41-1.72 1.04-.84.55-1.48 1.31-.72.68-1.24 1.58-.59.81-.99 1.83-.46.95-.73 2.08-.78 3.38-.56 3.45h21.57l2.82-.02 1.37-.01 2.55-.04 1.23-.02 2.24-.07 1.08-.03 1.91-.08.9-.04 1.54-.1.71-.05 1.13-.12.51-.06.69-.13.28-.06.22-.15.16-.26.12-.75.03-.41-.11-1-.16-1.05-.9-2.53-.53-1.28-1.45-2.58-2.53-3.28-1.11-1.11-2.53-1.74-1.31-.79-2.91-1.09-1.5-.46-3.29-.44M381 701.56l.57.05 1.07.38.52.23.89.78 1 1.64.28.73.17 1.41.03.69-.27 1.29-.18.62-.62 1.09-.34.52-.89.82-.46.38-1.07.49-.55.2-1.15.1-.59-.01-1.17-.38-.58-.25-1.09-.91-.43-.43-.68-1.53-.46-2.52v-.71l.35-1.24.22-.58.72-.97.39-.45.98-.67.5-.29 1.12-.35.57-.13Z" fill="rgba(0,0,0,1)"/><path d="m692.87 622.13-3.33.79 4.85-1.24m15.03-4.75-1.75.56 1.57-.56 4.21-1.57m11.7-4.83-2.83 1.18 4.12-1.81m18.31-9.81-4.72 2.86-2.04 1.06 1.7-.96 5.13-3m13.64-9.1-4.42 3.24-3.88 2.47 5-3.33 2.94-2.15 3.63-2.74m9.52-7.79-4.11 3.63-2.72 2.09 2.3-1.9 5.2-4.43m11.19-10.83-3.79 4.01-4.34 3.99 5.26-5.04 2.54-2.66 2.2-2.37m8.43-9.64-4.01 4.76-.42.46 1.24-1.46 4.52-5.46m6.13-8.18-1.79 2.52-3.68 4.81 1.85-2.44 3.88-5.27m4.91-7.28-1.66 2.59-1.26 1.82.75-1.11 2.36-3.61m7.62-12.94-2.2 3.93 3.11-5.71m3.24-6.44-.47.94.92-1.93m13.01-36.8-.75 3.03-1.7 5.98-.88 2.97-1.97 5.87-1.01 2.91-2.23 5.75-1.15 2.86-1.43 3.22.76-1.8 3.2-7.95 1.43-4.07 2.74-8.17 1.18-4.1 2.09-7.7m1.76-7.96-.61 3.08-.71 3.03.59-2.65.98-4.78m4.17-54.72-.34 18-.06 3.25-.34 6.45-.2 3.22-.61 6.36-.34 3.17-.89 6.28-.48 3.13v.04l.33-2.21 1-7.56.24-3.55.2-3.5.02-1.69.01-3.31-.06-1.58-.25-4.35-.23-2.83-.12-1.26-.27-2.42-.14-.95-.28-1.71-.13-.48-.78-4.04-.21-2.67.04-1.17.17-2.21.23-.77.25-.72.16-.24.34-.42.21-.08.72-.11.9-.07.64-.03 1.4-.07.86-.03 1.82-.07 1.06-.03 2.19-.05 1.21-.03 2.5-.05 1.34-.02 5.59-.07 2.26-.01m-10.14-71.24-.04.08.04-.09M863.86 378h-.16l-.05-.02h.1l.5-.5m.12-.16-.02.03.08-.29m-206.99-43.93-.34 1.14.33-1.11.53-1.42.02-.02m7.24-7.68-2.64 2.07-3.05 3.15-1.51 2.39 1.47-2.36 3.02-3.12.39-.31.61-.54.27-.25.31-.44.11-.21-.02-.38-.06-.18-.39-.34-.2-.13m-6.58-1.73 2.36.45.98.24 1.34.37-.7-.19-.7-.17-1.77-.38-2.11-.42m-26.93-88.04-1.98.22-.72.14-1.29.3-.51.18-.95.4-.47.24-3.28 1.41-.98.33-.41.1-.74.16h-.24l-.83.14-.36.27-.09.24-.12.59.02.43.09.99.11.68-.12 3.57-.33 1.27-.26.68-.57 1.39-.39.74-.97 2.08-.69 1.62-.33.85-.66 1.72-.29.83-.55 1.62-.21.7-1.97 5.35-1.69 3.66-.97 1.76-2.02 3.43-1.05 1.51-2.14 2.84-1.04 1.08-2.41 2.95-.57.88-.17.36-.27.66v.21l-.19 1.56-.3 1.33-.23.76-1.07 3.28-.72 1.77-1.51 3.52-.79 1.55-.79 1.48-.38.63-.74 1.17-.35.43-2.94 4.79-1.31 3.34-.3 1.59-.24 1.57-.03.73.01 1.44.11.64.28 1.24.24.53.55.99.38.38.7.5.66.28.48.12 1.08.23.73.1 1.63.19 1.07.08 2.32.16 1.46.07 3.16.14 1.95.06 2 .07 1.11.03 2.27.06 1.25.03 2.56.07 1.4.03 2.86.07 1.56.04 9.36.25 5.65.2 2.55.11 4.91.24 2.2.14 1.08.07-2.31-.11-1.86-.08-4.29-.14-2.24-.07-5.1-.13-2.66-.06-5.98-.11-10.06-.16-39.31-.54-23.28-26.13-1.6-1.79-3.38-3.78-1.71-1.92-3.51-3.92-3.52-3.93-7.02-7.81-1.71-1.91-3.3-3.66-1.61-1.79-3.02-3.35-1.46-1.62-2.64-2.9-3.4-3.75-14.6-16 114.69-.84 21.83-.15m264.69 71.08.01-.01v.01m-86.02-4.94-.13.12-.13.63-.05 1.6v.69l.05.91.05.39.21.36.14.12.46-.11 1.09-.59.55-.35.86-.69.36-.32.23-.41v-.14l-.59-.59-1.41-1.04-.46-.28-.63-.31-.27-.11m65.31-41.05.41.13.6.45.27.25.35.63.29.66-.13 1.53-.16.75-.93 1.25-.28.26-.68.37-1.19.24h-.3l-.83-.35-.42-.22-.75-.63-.33-.33-.41-.7-.17-.35-.12-.72-.06-.71.61-1.26.41-.58 1.33-.69.36-.12.81-.07m26.53.1.3.16.5.48.54.98.14.45.08.84.02.4-.15.75-.2.71-.95 1.01-.54.42-1.41.25-.37.01-.77-.16-.39-.12-.8-.43-.37-.23-.47-1.07-.16-1.93.06-.41.31-.7.18-.33.5-.52.54-.48 1.39-.4.7-.1m-46.02.36.82.26 1.17.81.32.32.42.56.18.27.16.52.04.26-.11.55-.44.91-.37.58-.86.78-.45.33-.95.27-.48.07-.94-.25-.46-.2-.82-.79-.34-.41-.36-.83-.13-.41.01-.8.04-.39.31-.7.18-.34.53-.55.29-.26.69-.34.37-.14.78-.08m-41.22.69h1.75l3.19.01h1.56l2.83.02h1.37l2.48.02 1.2.01 2.16.03 1.04.01 1.85.03.89.02 1.58.04.75.02 1.32.06 1.26.05 1.84.14.82.08 1.12.2.48.11.56.25.41.47.17.43-.02.95-.49 1.13-.07.07-.81.13-.51.07-1.64.13-.91.07-2.39.13-1.29.06-3.06.12-1.61.06-3.66.1-1.89.06-4.18.09-2.15.04-4.61.08-7.34.09-1.8.02-3.36.03-1.63.02-3.03.02-1.47.01-2.71.02h-1.32l-2.41.01h-3.31l-1.03-.01-1.87-.01-1.81-.02-2.89-.06-1.34-.04-2.05-.11-.93-.06-1.34-.15-.6-.09-.76-.21-.33-.11-.32-.27-.42-.51-.2-.89.73-1.47.13-.16.51-.27.31-.13.97-.22.56-.1 1.61-.16.89-.07 2.4-.12 1.31-.05 3.35-.08.91-.02 2.01-.03 1.04-.01 2.31-.03 1.2-.01 2.62-.01 1.35-.01 2.96-.01h1.52l3.31-.01h7.34m-50.21-46.26.04.04.08.52.04.33.07 1.06.04.59.07 1.53.03.82.05 1.94.03 1.02.05 2.29.02 1.18.03 2.58.05 8.53v4.9l-.01 2.11v1.02l-.01 1.84v.89l-.02 1.58-.02 1.52-.06 2.35-.04 1.07-.11 1.57-.07.7-.18.95-.09.41-.26.49-.14.19-.35.17-.64.07h-.24l-.4-.07-.19-.06-.3-.31-.14-.19-.21-.7-.1-.41-.15-1.25-.06-.7-.09-1.95-.04-1.07-.04-2.81-.01-.76-.01-1.71-.01-.89v-1.98l-.01-1.02v-8.25l.01-3.84.01-1.82.04-3.08.02-1.45.06-2.4.04-1.12.09-1.8.05-.83.14-1.27.07-.58.17-.83.09-.36.22-.46.39-.35.39-.15.78-.06m-9.34 40.62-.06.76-.16 1.08-.09.47-.22.63-.12.26-.3.3-.53.22-.49.09-.9-.25-.41-.18-.41-.58 1.97-2.12 1.8-1.94m-50.29-9.32 2.66.72 5.45 1.73 2.74.91 5.57 2.1 2.8 1.09 5.66 2.46 2.83 1.26 4.31 2.11-9.09-4.21-7.17-2.95-3.55-1.28-7.05-2.42-3.37-.98-5.14-1.39m84.21-11.76.7.59 1.29 1.15.61.57 1.02 1.02.46.48.64.76.4.73v.24l-.35.77-.23.42-.72 1.05-.8 1.1-2.2 2.53-1.13 1.23-2.19 2.04-.5.43-.85.6-.91.39h-.24l-.77-.36-.43-.22-1.06-.74-1.11-.82-2.52-2.37-4.42-4.5 2.97-2.75.82-.75 1.9-2.05 2.38-2.88 2.12-2.95m.51 6.58-.82.52-1.76 1.5-2.49 2.22 2.15 2.73.59.75 1.05 1.19.24.26.36.35.34.23.06.01.31-.24.19-.15.53-.52.56-.57 1.46-1.69 2.68-3.21-2.27-1.79-.71-.55-.96-.7-.44-.27-.71-.1m-29.26-19.21-.26.49-.11.42-.19.96-.07.71-.13 1.59-.06 1.08-.09 2.37-.04 1.53-.03 1.59-.02.89-.03 1.85-.01 1.03-.03 2.12-.02 1.17-.03 2.42-.02 1.33-.03 2.9.03-3.93.02-1.26.03-2.3.01-1.12.03-2.02.03-1.96.07-3.14.04-1.46.09-2.26.06-1.03.13-1.51.07-.68.19-.92.11-.4.26-.48h.01m-17.26 16.45-3.7 3.62h-23.28l23.36-.17 3.67-3.54 3.66-3.53m112.56-.03.68-.34.72-.38 1.84-1.09.93-.57 1.45-1.1.3-.25.42-.41.21-.34-.4 1.11-.03.81.16.17.56.27.49.04 1.09.01.58-.11 1.43-.16 1.44-.1.9-.05.64-.02-1.65.4-.91.29-1.93 1.05-.53.32-1.2.78-2.13 1.44-1.05.72-1.77 1.17-.83.53-1.37.81-.64.36-1.02.46-.47.18-.72.09-.33.01-.47-.27-.21-.17-.27-.62-.12-.35-.12-.98-.04-.53-.02-1.33v-.65l-.09-1.18-.06-.56-.2-.92-.11-.43-.28-.62-.3-.29.4.03.14.06 1.19.39h.43l.76-.17.27-.37.48-.95.19-.84.18-.9.02-.12-.02.94v.69l.05 1.25.03.6.11.99.05.45.15.63.24.39h-.45l-1.38.37-.76.55-.25.36-.4.75-.02.38.11.73.29.3.66.43.41.03.84-.05.41-.17.8-.44.31-.33.53-.73.08-.44-.23-1.31-.73-.43h-.13l.42-.16m26.86-4.38-.21.62-.17.27-.81.33-.03.01.83-.33.17-.28.22-.62m-100.02.7-.2-.04-.67-.17-.66-.44-.24-.24.04-.6.68-1.08.14-.17.49-.29.3-.13.59-.15m70.4-8.49.44.22 1.27.74.69.41 1.63 1.02 2.67 1.75.82.55 1.37.9.65.42 1.12.68 1.08.63 1.83.71.94.29 2.18.23.61.04 1.42.04 2.56.01h.9l1.51.01.71.01 1.15.04h.18l-1.78.23-.6.2-.23.12-.39.25-.08.14-.58.43-.64.22-.42.08-1.9.24h-1.11l-2.28-.08-1.03-.17-1.95-.41-.61-.32-.97-.41-.52-.08-.22.07-.42.2-.2.22-.38.5-.19.37-.09.25v-.03l-.29-.33-.18-.18-.57-.49-.63-.52-1.71-1.23-.88-.6-1.65-1.02-.37-.21-.6-.31-.6-.19h-.02l.01-.07-.02-1.01-.05-.4-.14-.74-.11-.26-.24-.45-.16-.12-.33-.14-.2.04-.4.17-.22.21-.46.49-.24.38-.49.84-.25.55-.64 1.4.26-3.14.09-1.03.38-1.62.11-.34.23-.46.36-.3h.12m-2.04 7.97-33.78.27-31.47.24h.04l.85-.09 2.29-.14 1.26-.06 3.22-.11.87-.02 1.95-.04 1-.03 2.24-.04 1.15-.01 2.54-.04 1.32-.02 2.87-.03 1.48-.01 3.22-.03 5.25-.05 33.91-.26m-92.13-4.93.19.06.23.23-.49-.3M827 370.14l11.25-.29 9.68-.24-8.92.25-1.44.04-2.65.08-1.26.05-2.11.08-.97.05-1.34.08-.28.01-.37.04-.25.04-.02.01.04.23.02.15.1.47.12.53.43 1.68.23.92.62 2.29 1.07 3.9.38 1.37.8 3.1.4 1.57.75 3.22.36 1.58.62 2.95.69 3.7.34 2.06.64 3.89.15.88.25 1.44.27 1.46.1.56.51.73.21.16.71.25.42.11 1.25.17.71.08 1.14.07-1.13.06-.93.07-1.77.16-.71.09-1.29.2-.45.12-.74.24-.14.13-.81.69-.47.21-.25-.03-.5-.14-.3-.2-.66-.51-.43-.39-.91-1.07-.67-.98-.33-.58-1.32-2.53-.46-1.27-3.45-9.01-2.29-5.56-1.16-2.6-2.33-5.07-1.2-2.4-2.42-4.72-1.27-2.27-1.3-2.33-1-1.78-.56-1-2.34-4.19-1.29-2.32-2.63-4.71-1.31-2.36-2.61-4.68-1.19-2.13-7.58-13.15-2.42-4.03-1.04-1.68-1.01-1.62-.44-.7-.84-1.3-.35-.52-2.31-3.57-1.57-2.57-.8-1.37-3.2-5.66-1.56-3-3.07-6.07-1.41-3.05-2.72-6.05-1.14-2.85-1.1-2.69-.66-1.52-.34-.67-1.35-2.46-.92-1.17-.98-1.17-.59-.64-1.28-1.32-.79-.75-1.68-1.58-1.02-.93-2.18-1.96-1.31-1.17-3.23-2.85-1.95-1.67-.9-.73-3.46-2.73-1.71-1.16-2.95-1.9 1.76.98 5.73 3.42 8.55 5.46 14.21 9.49 24.89-.14 1.59-.01 2.93-.01 1.42-.01H804.1l2.27.02 1.11.01 1.97.03.96.01 1.7.05.81.03 1.43.07 1.37.07 2.02.22.89.12 1.17.33.49.18.45.46.14.24-.13.61-.71 1.09-.14.16-.41.28-.23.13-.68.22-.39.1-1.04.17-.58.08-1.5.12-.82.05-2.06.09-1.11.03-2.7.05-1.44.02-3.45.03-6.11.01h-2.94l-5.36.06-1.28.02-2.35.05-1.14.03-2.03.07-.97.03-1.65.08-.77.04-1.2.09-.55.05-.7.1-.44.15v.06l.17.27.12.16.38.48.44.52 1.4 1.55.78.84 1.94 2.02 3.32 3.35.9.9 1.55 1.51.73.71 1.24 1.17.58.54.97.85.45.38.74.56.34.25.55.3.25.12.39.06.81-.53.13-.23.55-.47.31-.23.82-.44 3.01-.95.69-.11 1.14-.32.54-.18.86-.45.4-.25.62-.63.73-1.15.3-.67.89-1.04 1.32-.72h.73l1.91.53.98.33 1.99.97.95.52 1.55 1.14.34.28.49.54.43.75.06.23.23.39.15.18.62.3.39.13 1.3.21.37.05.94.08.49.04 1.2.06.63.04 1.5.05.79.02 1.82.04.96.02 2.2.03 1.14.01 2.6.02 1.36.01 3.03.01 1.58.01h3.51l1.81.01H857.84l5.28.02h.28l-1.34.01-3 .05-2.96.05-1.38.03-2.69.08-1.21.04-2.33.1-.99.05-1.87.11-.73.07-1.31.13-.41.07-.66.16-.05.08-.29 1.16.05.94.15.4.18.29.2.12.48.23.4.1.9.18.65.07 1.42.14.95.05 2.05.1 1.29.03 2.78.06 1.7.02 3.61.04 2.16.01h2.6l-2.74.01H846.98l-3.46.01-1.69.01-3.08.01h-1.49l-2.71.02-1.31.01-2.36.03-1.14.01-2.04.03-.99.02-1.74.04-.83.02-1.47.05-1.4.06-2.07.14-.93.07-1.26.19-.55.1-.64.24-.46.44-.08.22-.37.38-.21.18-.59.29-2.28.43h-.82l-1.84.31-2.25.73-.4.22-.62.21-.29.07-.45-.12-.21-.11-.37-.51-.56-1.26-.21-.53-.44-.77-.24-.34-.64-.43-.36-.19-1.01-.18-2.1-.1h-1.1l-1.72.22-.36.07-.48.17-.29.29.01.1.42.73.27.43.87 1.27.47.69 1.19 1.64 2.02 2.7 5.18 6.81 26.5.19 26.5.19v5l-24.25.27-3.33.03-6.09.13-1.45.03-2.67.08-1.29.04-2.3.09-1.1.05-1.88.09-.87.05-1.37.1-.62.05-.81.11-.5.15v.1l.25.67.16.41.53 1.17.3.63.74 1.51 1.27 2.48 3.28 6.24 15.82.01 15.82.01-.32 2.25.03-1.25-.29-.53-.41-.15-1.02-.22-.9-.05-.97-.03-.6-.01-1.29-.01h-.78l-5 .39-3.3.59-1.42.4-1.37.42-.59.23-1.11.46-.43.23-.77.48-.24.24-.36.47v.23l.28.25.5.1 1.24.18.92.05 2.02.1h.1l-1.58.04-1.01.03-1.8.08-.87.04-1.5.09-.71.05-1.21.11-.57.06-.92.13-.42.07-.63.14-.28.08-.35.17-.21.27v.15l.25.94.16.56.52 1.59.29.86.72 2.04 1.23 3.33 3.17 8.35h10.58l10.58-.01-20.5.01Z" fill="rgba(118,31,96,1)"/><path d="m758.1 591.18-2.94 2.15-6.07 4.04-3.07 1.98-6.33 3.7-3.19 1.8-6.58 3.35-3.33 1.63-6.83 3-3.44 1.46-7.08 2.64-3.57 1.28-7.32 2.29-3.69 1.11-7.57 1.93-3.81.93-7.81 1.58-11.97 1.97 11.85-1.95 7.73-1.57 3.79-.92 7.51-1.93 3.67-1.09 7.28-2.28 3.56-1.27 7.04-2.63 3.44-1.44 6.81-2.98 3.31-1.62 6.57-3.31 3.19-1.79 6.31-3.66 3.06-1.95 6.06-4 2.94-2.12 3.55-2.65m2.74-2.07-.17.13 1.22-1m-226.33-27.88-.78 1-1.33 1.62-.62.73-.92.99-.81.62.75-.62.91-.96.61-.71 1.29-1.55.75-.93.26-.32m16.55-23.81-2.82 4.58-1.69 2.6-3.88 5.58-1.95 2.77-3.69 4.99 9.66-13.72 5.95-9.55m111.33 7.3-.74.2 3.17-1.03m9.25-3.27-.96.35 1.89-.78m-122.53-5.34-1.01 1.87-.14.24 1.29-2.38m176-298.92.63.53 1.15.99.54.47.91.82.42.38.57.55.36.44v.05l-.29.44-.19.26-.61.8-.34.44-.84 1.05-1.44 1.75-.53.63-.96 1.05-.47.48-.85.77-.41.36-.76.49-.36.21-.67.23-.33.07-.59-.04-.28-.06-.53-.32-.25-.19-.47-.58-.65-1.16-1.14-2.5h-26.37l-5.77.05-1.37.01-2.52.04-1.21.02-2.15.05-1.03.02-1.73.06-.8.03-1.24.07-.56.03-.69.08-.36.11.08.08.72.26.44.15 1.32.36.72.18 1.74.42 2.9.62 3.04.62 6.61 1.79 3.37.98 7.05 2.42 3.55 1.28 7.17 2.95 10.55 4.88 1.39.69 2.44 1.26 1.18.61 2.1 1.15 2.03 1.13 3.48 2.24 1.71 1.16 3.46 2.73.9.73 1.95 1.67 3.23 2.85 1.31 1.17 2.18 1.96 1.02.93 1.68 1.58.79.75 1.28 1.32.59.64.98 1.17.92 1.17 1.35 2.46.34.67.66 1.52 1.1 2.69 1.14 2.85 2.72 6.05 1.41 3.05 3.07 6.07 1.56 3 3.2 5.66.8 1.37 1.57 2.57 2.31 3.57.35.52.84 1.3.44.7 1.01 1.62 1.04 1.68 2.42 4.03 7.58 13.15 1.19 2.13 2.61 4.68 1.31 2.36 2.63 4.71 1.29 2.32 2.34 4.19.56 1 1 1.78 1.3 2.33 1.27 2.27 2.42 4.72 1.2 2.4 2.33 5.07 1.16 2.6 2.29 5.56 3.45 9.01.46 1.27 1.32 2.53.33.58.67.98.91 1.07.43.39.66.51.3.2.5.14.25.03.47-.21.81-.69.14-.13.74-.24.45-.12 1.29-.2.71-.09 1.77-.16.93-.07 2.15-.12 1.11-.05 2.45-.08 1.26-.03 2.67-.04 2.71-.03 5.71.04 2.86.04 5.51.19 1.33.05 2.52.13 1.22.07 2.23.16 1.03.08-.53-.02-1.88-.06-1.12-.04-2.99-.07-1.65-.03h-.66l-1.24.01-.48.03-.89.06-.32.05-1.04.28-.22.25-.26.58v.43l.21 1.52.3.86.19.19.44.18.55.07 1.28.12.88.04 1.92.06h1.11l1.98-.01-1.08.03-2.6.06-8.56.12-3 .01-5.59.07-1.34.02-2.5.05-1.21.03-2.19.05-1.06.03-1.82.07-.86.03-1.4.07-.64.03-.9.07-.72.11-.21.08-.34.42-.16.24-.25.72-.23.77-.17 2.21-.04 1.17.21 2.67.78 4.04.13.48.28 1.71.14.95.27 2.42.12 1.26.23 2.83.25 4.35.06 1.58-.01 3.31-.02 1.69-.2 3.5-.24 3.55-1 7.56-.58 3.84-1.64 7.97-.9 4.02-2.22 8.18-1.18 4.1-2.74 8.17-1.43 4.07-3.2 7.95-1.65 3.93-2.93 6.13.72-2.22.19-1.1.29-2.23-.01-1.22-.1-2.52-.18-1.47-.45-3.09-.33-1.86-.35-1.92-.2-1.05-.41-2.17-.23-1.2-2.67-12-2.1-7.54-1.31-3.82-1.36-3.85-.76-1.99-1.58-4.03-.89-2.13-1.84-4.32-1.03-2.31-2.14-4.72-1.19-2.54-3.5-7.42-2.27-4.76-1.1-2.28-4.31-8.89-2.03-4.08-3.97-7.92-1.87-3.61-3.65-6.97-1.7-3.14-3.34-6.06-1.56-2.69-3.05-5.16-1.41-2.25-2.77-4.3-1.28-1.83-2.49-3.45-1.15-1.42-5.49-6.47-3.37-3.69-1.57-1.53-3.06-2.87-1.43-1.13-2.8-2.09-1.32-.76-2.61-1.34-1.25-.41-2.47-.63-1.2-.06-2.39.05-1.19.26-2.38.69-1.21.57-1.68.93-.79.61-.25.34-.43.71-.1.44-.15.92v.59l.47 2.77.68 1.91.44.66.3.66-2.14-3.27-.79-1.04-1.2-1.4-.58-.62-1.15-.76-.61-.32-1.58-.36-.44-.08-1.05-.12-1.89-.18-5.96-.5-.6-12.51-5.29-3.99-.73-.55-1.38-1.01-.66-.47-1.16-.8-.54-.36-.81-.49-.67-.32h-.09l-.17.44-.08.28-.13.91-.06.5-.08 1.26-.05 2.15v1.58l-.44 2.94-.29 1.43-.97 2.59-.55 1.25-1 1.53.25-.68v-.67l-.3-2.09-.51-.75-.42-.05-.95.1-.66.37-1.44.95-.91.79-1.49 1.2.04-.03 1.48-1.81.68-.93.99-2.04.42-1.04.48-2.18.17-1.1-.05-2.25-.09-1.12-.59-2.22-.36-1.09-1.13-2.11-2.34-2.94-.67-.66-1.37-1.06-.7-.48-1.41-.71-.71-.32-1.43-.38-.71-.15-1.42-.08-.7-.01-1.38.2-.68.13-1.31.46-1.3.52-2.29 1.72-1.08.96-1.73 2.46-.77 1.31-.94 3.04-.11.46.09-.61.25-.93.59-1.84.42-.89 1.69-2.79.62-.79.3-.31.57-.55.25-.16.79-.61.32-.42.06-.23.06-.47-.06-.27-.18-.57-.19-.34-1.07-1.33-.82-.41-.46.04-.97.24h-.01l1.66-1.3-2.38-.91-.72-.28-1.83-.5-.98-.24-2.36-.45-1.25-.21-2.93-.39-1.55-.19-3.55-.34-1.86-.16-4.21-.28-2.2-.14-4.91-.24-2.55-.11-5.65-.2-9.36-.25-1.56-.04-2.86-.07-1.4-.03-2.56-.07-1.25-.03-2.27-.06-1.11-.03-2-.07-1.95-.06-3.16-.14-1.46-.07-2.32-.16-1.07-.08-1.63-.19-.73-.1-1.08-.23-.48-.12-.66-.28-.7-.5-.38-.38-.55-.99-.24-.53-.28-1.24-.11-.64-.01-1.44.03-.73.24-1.57.3-1.59 1.31-3.34 2.94-4.79.35-.43.74-1.17.38-.63.79-1.48.79-1.55 1.51-3.52.72-1.77 1.07-3.28.23-.76.3-1.33.19-1.56v-.21l.27-.66.17-.36.57-.88 2.41-2.95 1.04-1.08 2.14-2.84 1.05-1.51 2.02-3.43.97-1.76 1.69-3.66 1.97-5.35.21-.7.55-1.62.29-.83.66-1.72.33-.85.69-1.62.97-2.08.39-.74.57-1.39.26-.68.33-1.27.12-3.57-.11-.68-.09-.99-.02-.43.12-.59.09-.24.36-.27.83-.14h.24l.74-.16.41-.1.98-.33 3.28-1.41.47-.24.95-.4.51-.18 1.29-.3.72-.14 1.98-.22.55-.04 1.3-.09.69-.04 1.59-.07.84-.03 1.92-.06 1.02-.02 2.31-.04 1.2-.02 2.74-.03 1.42-.02 3.21-.02 1.66-.01 3.72-.01 1.93-.01h4.27l2.22-.01h60.41l3.7-3.62 3.71-3.62m2.93 258.67-.36.85-4.73 9.53-3.77 6.01-2.17 2.83-4.53 5.53-1.36 1.38 3.45-3.99 5.18-7 .62-.94 1.3-2.11.65-1.09 1.3-2.32 1.29-2.34 2.3-4.64.53-1.11.72-1.64m-163.35 21.26-1.63 3.9-.16.34 2.1-5.02m3.7-9.86-.5 1.54-1.27 3.47-.33.87 1.47-4.24 1.45-4.45m160.29-13.2-.01.05v-.12m.01-6.75-1.15.47-.67.2-2.31.74-.86.38-.13.2-.08.42.21.3.58.66.49.49 1.69 1.39 1.01.58h.27l.79.34.06.26-.58-.06-.4-.03-1.32-.06-.74-.04-1.92-.06-1.03-.04-2.46-.07-1.29-.03-2.91-.07-1.51-.03-3.28-.07-1.69-.03-3.59-.06-1.27-.02.78-.01.95-.04 1.81-.08.79-.05 1.51-.12.65-.07 2.33-.33.79-.22 4.52-1.27-3.51-1.88-1.34-.59-1.15-.32-.83-.13-.89-.12-.54-.05-1.14-.11-.69-.04-1.45-.08-.86-.04-1.81-.06-1.06-.03-2.23-.05-1.28-.02-2.7-.03-1.55-.01-3.22-.02-1.82-.01-2.94-.01 41.35-.15M579.62 472.89l-.06.24.07-.32m160.66-14.43-.19 1.21-.39 2.34-.21 1.06-.44 2.05-.24.89-.48 1.68-.14.37.44-1.59.23-.86.46-2.09.22-1.09.45-2.43.22-1.25.19-1.23m-157.82-1.33-.58 4.18-.36 1.93 1.05-7.06M391.55 231.52l3.78.13 7.55.59 3.78.34 7.54 1.01 3.77.56 7.52 1.44 3.75.77 7.46 1.88 11.12 3.3 4.57 1.49 8.92 3.47 4.42 1.81 8.59 4.06 4.26 2.11 8.25 4.65 4.08 2.4 7.86 5.21 3.88 2.67 7.45 5.75 3.67 2.94 7 6.27 3.44 3.2 6.52 6.76 9.21 10.67 2.74 3.43 5.11 6.98 2.49 3.51 4.6 7.16 2.24 3.6 4.1 7.31 1.99 3.68 3.6 7.46 1.73 3.75 3.09 7.6 1.48 3.82 2.59 7.73 1.22 3.88 2.08 7.85.97 3.94 1.56 7.96.71 3.99 1.05 8.06.46 4.04.53 8.15.2 4.08.01 8.22-.05 4.12-.51 8.29-.32 4.16-.34 2.82.32-3.68.75-11.28.05-5.73.01-3.57-.01-2.09-.02-.91-.04-1.73-.03-.74-.08-1.4-.05-.59-.23-2.09-.18-.69-.4-1.15-.27-.33-.72-1.04-.6-.99-.33-.59-1.39-2.6-.61-1.33-1.22-2.32-1.05-1.78-.6-.93-2.53-3.76-1.2-1.49-2.72-3.52-2.07-2.76-1.11-1.53-4.62-6.44-2.3-3.32-2.28-3.31-1.07-1.59-2.08-3.11-.93-1.41-1.76-2.72-.71-1.14-1.3-2.14-.43-.78-2.8-4.66-2.22-3.27-1.41-1.89-1.47-1.94-.84-1.06-1.73-2.2-.99-1.21-2.05-2.51-1.16-1.4-2.41-2.89-1.36-1.61-6.57-7.72-3.99-4.61-1.86-2.09-3.66-4.07-1.76-1.9-3.5-3.72-1.75-1.79-3.53-3.56-1.84-1.78-3.73-3.58-2.01-1.86-4.13-3.79-2.27-2.03-4.71-4.19-2.63-2.3-3.36-2.94-2.08-1.82-.96-.85-3.66-3.19-1.58-1.37-2.97-2.58-1.28-1.1-2.41-2.08-1.05-.88-1.98-1.68-.88-.72-1.68-1.38-.76-.62-2.93-2.32-1.5-1.14-7.83-6.39-5.19-4.6-2.25-2.16-2.17-2.11-.93-.95-1.76-1.85-.69-.78-1.23-1.46-.37-.54-.58-.96v-.25l-.59-1.16-.86-.65-.55-.14-1.41-.78-.59-.75v-.38l-.21-.54-.37-.37-.31-.21-.69-.41-.48-.22-1.06-.46-.67-.26-1.43-.52-.88-.28-1.85-.59-1.09-.32-2.3-.67-1.32-.37-2.77-.76-1.57-.42-1.91-.42-1.51-.25-.85-.11-3.68-.41-2.16-.15-4.51-.26-2.48-.07-5.06-.11h-2.65l-10.78.15-5.13.29-3.28.22 2.96-.27 3.75-.29 7.53-.27 3.76-.08M741.93 429l.02 1.33.01 4.67-30.71-.02h-2.11l-4.09-.02-2.02-.01-3.83-.04-1.87-.02-1.41-.03 1.33-.07.83-.12 1.44-.28.48-.21.83-.47.26-.32.62-.88.16-.48-.04-.21-.18-.43-.22-.24-.54-.49-.41-.3-1.44-.66-1.35-.3-.45-.04h.17l2.83-.03 1.47-.02 3.23-.03 5.32-.04 31.67-.27m-2.92-20.48-.12.08-.75 1.06-.15 1.02.08.58.27 1.19.28.58.66 1.14.47.46.24.41-42.09-.15 2.95-.04 1.33-.02 2.57-.04 1.14-.03 2.18-.06.96-.03 1.84-.07.8-.03 1.52-.08.66-.05 1.24-.09.53-.05 1.87-.21.65-.13 1.13-.27.38-.16 1.83-.84.74-.46.17-.21.19-.44-.09-.26-.27-.53-.29-.34-.72-.47-.85-.26-.7-.11-1.61-.19-1.18-.08-1.25-.07-.74-.03-1.55-.06-.9-.03-1.88-.04-1.08-.02-2.25-.04-1.28-.01-2.65-.03-1.49-.01-3.09-.01-1.72-.01h-4.95l2.39-.01 7.37-.04 3.6-.02 6.65-.04 3.21-.02 5.75-.05 1.38-.01 2.55-.03 1.24-.01 2.27-.03 1.1-.01 1.97-.03.94-.01 1.65-.03.78-.02 1.31-.02.6-.02.95-.03.42-.01.55-.03.3-.04m-143.54 5.71.19.18.15.05.23.02.55.05.42.02.91.04-2.43-.01-.07-.5m285.6-2.79.65.39.16.42-.01.93-.46 1.08-.06.06-.57.12-.35.06-1.09.12-.15.01.63-.09.3-.08.97-.36.2-.28.25-.63v-.46l-.26-1.1-.25-.21m-267.8-1.67-3.09.1-1.35.05-2.59.11-1.12.07-2.11.13-.9.07-1.7.15-.7.08-1.3.17-.52.09-.96.2-.36.1-.64.22-.23.12-.4.32.07-.3.09-.15.36-.24.21-.12.66-.18.38-.09 1.04-.15.58-.07 1.5-.12.81-.06 2.04-.12 3.74-.19.41-.02 1.1-.04.6-.02 1.48-.04.79-.02 1.83-.04.33-.01m251.1-53.92.16.41.22 1.54.05.45.08 1.11.03.59.06 1.4.02.74.02 1.72.02 2.94v1.07l-.02 1.88-.01.9-.03 1.55-.03.74-.06 1.25-.04.59-.09.97-.09.9-.29 1.04-.59.59h-.17l-.83-.34-.48-.22-1.31-.69-.7-.38-1.64-.96-.84-.5-1.78-1.13-6.5-4.19-11.25.28-11.25.29V365l20.5-.01L855 360l1.03-.69 1.98-1.25.96-.6 1.69-.99.8-.45 1.21-.62 1.08-.4h.23m-3.52 6.58-.31.08-.81.34-.84.4-1.92 1.26-.93.66-1.42 1.31-.28.3-.32.49.02.51.89.76 1.67 1.29.81.6 1.42.91.66.4 1.04.46.98.08.12-.08.22-.48.11-.29.17-.83.16-.89.1-2.36v-1.21l-.24-2.04-.08-.44-.19-.66-.32-.55-.15-.09m-138.32 6.16-.17.29-.68.24-.97.15-.74.06-1.66.13-1.08.05-2.34.1-1.43.05-3.02.08-1.76.03-3.7.06-2.1.02-4.37.04-2.43.01-5.04.02H658.4l30.27-.24 2.97-.02 5.3-.06 2.54-.03 4.49-.07 2.14-.04 3.69-.09 1.76-.04 2.93-.11 1.38-.06 2.21-.12 1.02-.07 1.52-.15.67-.07.85-.17.52-.26m-125.09-20.03.32.24.86.76.9.82 2.18 2.27 1.08 1.15 1.81 2.15.39.48.54.78.35.75v.15l-.37.56-.24.31-.76.78-.82.82-2.24 1.87-1.13.9-2.06 1.42-.46.29-.7.34-.3.13-.3-.06-.12-.12-.19-.9-.08-.53-.12-1.55-.05-.84-.04-1.95-.02-1 .02-2.11.01-1.05.08-2.02.04-.97.13-1.68.08-.77.18-1.09.33-.7h.14m85.38 11.49-1.17.58-2.58.78-1.32.31-2.85.21-.85-.07 1.57-.05 1.11-.15 2.19-.38 1.05-.29 2.06-.66.94-.41.51-.25m-15.92-4.2.68.43 1.46.66.74.3 1.54.38.78.16 1.55.07h.77l-.82.11-.65-.02-1.3-.1-.65-.16-1.31-.38-.67-.3-1.36-.66-.7-.43-.25-.19m8.85 1.94-.66.13-.45.06 1.11-.19m-19.72-14.4.11 1.8.39 3.39.45 2.08.33.96.7 1.84.45.84.95 1.6.57.71.75.85-.73-.8-.58-.71-.96-1.59-.44-.83-.71-1.85-.32-.95-.46-2.1-.39-3.43-.11-1.92.03-.35m5.94 6.45-.35-.94-.07-.34m182.04-5.02.6.01.97.03.9.05 1.02.22.41.15.29.53-.03 1.25-.08.54-.33.72-.24.32-1.09.39-.34.08-.93.13-.51.06-1.32.09-.71.04-1.77.07-3.25.09-1.46.05h-2.6l-1.23-.01-2.02-.1-.92-.05-1.24-.18-.5-.1-.28-.25v-.23l.36-.47.24-.24.77-.48.43-.23 1.11-.46.59-.23 1.37-.42 1.42-.4 3.3-.59 5-.39h.78m-181.33-.15v-.03l.01-.08m.07-.72.01-.15.01-.05m-2.48-9.16-.92 1.68.24-.62 1.55-2.46 1.03-1.07m217.3-27.16 1.5.01 2.83.05 1.38.03 2.52.07 1.22.04 2.11.09.99.05 1.6.11.73.06 1 .14.7.23.16.25.06.86-.26 1.39-.07.17-.29.3-.18.14-.62.23-.36.1-1.07.18-.61.08-1.65.12-.92.05-2.36.08-1.29.04-3.21.05-1.72.02-4.18.02h-1.12l-2.42.01H865.7l-4.55-.01-2.16-.01-3.61-.04-1.7-.02-2.78-.06-1.29-.03-2.05-.1-.95-.05-1.42-.14-.65-.07-.9-.18-.4-.1-.48-.23-.2-.12-.18-.29-.15-.4-.05-.94.29-1.16.05-.08.66-.16.41-.07 1.31-.13.73-.07 1.87-.11.99-.05 2.33-.1 1.21-.04 2.69-.08 1.38-.03 2.96-.05 3-.05 6.4-.04 3.2-.01m-594.48-38.09-3.02 2.04 3.15-2.13 2.72-1.67m6.7-4.05.29-.18 2.65-1.42m455.96-42.57.14.18.22.63.11.37.16 1.1.07.63.11 1.72.06.95.08 2.46.03 1.34.07 3.34.09 6.14.27 19.27-2.53 2.73-2.54 2.73.26-22 .02-1.33.03-2.42.02-1.17.03-2.12.01-1.03.03-1.85.02-.89.03-1.59.04-1.53.09-2.37.06-1.08.13-1.59.07-.71.19-.96.11-.42.26-.49.14-.2.35-.18.64-.07h.48m-448.4 39.34.44-.23 2.65-1.22m6.99-3.19.62-.27 2.73-1.08m6.98-2.71.78-.29 2.61-.86m7.34-2.38.74-.23 1.93-.51m398.56-6.22-.29.25-.29.82.2 1.61.2.51.44.65.23.26.52.17.27.03.61-.31.33-.22.72-.79.43-.52.13-.83-.03-.2-.26-.42-.69-.68-.48-.4-.91-.25-.44-.04m-390.49 4.29.18-.05.36-.07m8.13-1.67 2.53-.49.93-.14m491.3-7.73.23 1.31-.08.44-.53.73-.31.33-.8.44-.41.17-.84.05-.41-.03-.66-.43-.29-.3-.11-.73.02-.38.4-.75.25-.36.76-.55 1.38-.37h.67m25.63-6.9.38.06.52.26.23.15.25.47.14.96v.46l-.22.62-.17.28-.84.33-.26.08-.71.1-.38.04-.98.07-.53.03-1.3.03-2.36.03-2.13.02-3.96.15-.9.05-1.44.1-1.43.16-.58.11-1.09-.01-.49-.04-.56-.27-.16-.17.03-.81.54-1.5.19-.37.38-.5.2-.22.42-.2.22-.07.52.08.97.41.61.32 1.95.41 1.03.17 2.28.08h1.11l1.9-.24.42-.08.64-.22.58-.43.08-.14.39-.25.23-.12.6-.2 2.26-.29h.57m-25.85-6.05.16.12.24.45.11.26.14.74.05.4.02 1.01-.15 1.82-.09.7-.17 1.18-.09.55-.18.9-.19.84-.48.95-.27.37-.76.17h-.43l-1.19-.39-.14-.06-.94-.09-.58-.04-1.75-.07-.96-.03-2.46-.05-1.31-.02-3.07-.03-1.6-.01h-5.43l-4 .02-2.04.01-4.32.04-6.74.09-33.34.52.68-4.8 33.78-.26 33.78-.27 1.13-2.48.25-.55.49-.84.24-.38.46-.49.22-.21.4-.17.2-.04Z" fill="rgba(160,29,92,1)"/><path d="m582.65 652.79-4.45.07-2.33.03-5.33.05-2.77.02-6.2.02-10.24.02h-.08l8.99-.02 5.71-.02 2.68-.02 5.21-.04 2.39-.03 4.6-.06 2.02-.03 1.02-.02m10.1-3.15.45.51.61.74.26.33.32.43v.01l-.15-.22-.26-.32-.58-.71-.36-.43-.41-.49m-131.3-141.61 2.81 3.02 1.46 1.55 3.14 3.36 1.6 1.72 3.37 3.61 10.57 11.36 3.1 3.33 5.94 6.38 2.92 3.14 5.61 6.03 2.76 2.97 5.28 5.68 2.6 2.79 4.97 5.35 2.44 2.62 4.67 5.02 2.29 2.47 4.37 4.69 2.15 2.31 4.08 4.4 2 2.15 3.81 4.1 1.87 2.01 3.54 3.81 1.74 1.87 3.28 3.54 1.61 1.73 3.03 3.27 1.49 1.61 2.8 3.01 1.37 1.48 2.56 2.77 1.26 1.36 2.35 2.54 1.15 1.24 2.14 2.31 1.04 1.13 1.94 2.1.4.43-.96-1.03-3.68-3.97-2.03-2.19-4.18-4.5-2.24-2.41-4.58-4.93-2.41-2.6-4.89-5.26-2.53-2.72-10.3-11.08-5.25-5.65-10.5-11.28-5.06-5.45-5.02-5.39-2.41-2.59-4.76-5.12-2.25-2.41-4.41-4.74-2.04-2.19-3.97-4.25-1.78-1.91-3.42-3.67-1.48-1.58-2.79-2.99L484 531l-7.23-7.75-4.74-5.11-2.16-2.33-2.1-2.28-.97-1.05-1.88-2.04-.83-.9-1.57-1.72-.15-.16m212.98 118.41-11.85 1.95 13.95-2.38m5.63-1.14-3.36.68 5.43-1.18m9.23-2.35-1.38.36 4.49-1.28M434.86 491.3h1.35l2.11.03 2.15.08 6.96.43 6.04 6.34.41.43 1.33 1.41.74.79.8.86-.72-.72-.67-.61-1.25-1.07-.43-.3-.74-.43-.13.08-1.06.03-.89-.35-.4-.34-1.03-.65-.43-.05v.19l-.46.03-.68-.48-.43-.43-1.44-1.17-.78-.35-.3.03-.52.22-.15.32-.24.78v.6l-.31 1.31-.43.56-.26.1-.5.05-.19-.2-.33-.54-.01-.53-.19-.4-.27.01-.18.12-.87.77-.5.64-.98 1.41-.37.72-.61 1.41v.49l-.6 1.91-.9 1.37-.6.62-1.25 1.16-.65.39-1.29.63h-.55l-1.25.47-1.25.75-.78.54-1.65 1.17-.91.7-1.87 1.47-.96.8-3.86 3.3-1.61 1.54-1.52 1.51-.6.65-1.07 1.23-.3.47-.95 1.12-.84.77-.48.37-2.08 1.4-1.01.42-3.19 1.62-1.85 1.25-.7.62-1.25 1.24-.31.55-.25.52-.03.23v.43l.1.18-.01.56-.6-.02-.56-.21-.79-.3-.32-.03.04.16.07.19.1.16.25.37.2.25.45.57.32.38.68.81.45.51.96 1.1.59.66 1.26 1.41.75.83 1.59 1.77.93 1.02 1.96 2.15 1.12 1.24 2.36 2.57 1.33 1.46 2.78 3.04 1.56 1.7 3.24 3.54 1.81 1.97 3.73 4.07 2.06 2.25 6.21 6.79 4.44 4.85 2.31 2.54 9.46 10.39 4.76 5.23 4.74 5.22 2.3 2.55 4.55 5.02 2.16 2.39 4.23 4.67.2.23-3.47-3.84-1.97-2.17-4.19-4.63-2.14-2.36-4.49-4.94-2.28-2.51-4.73-5.19-2.39-2.62-4.9-5.37-4.94-5.42-10.16-11.11-5.08-5.56-10.12-11.04-5.01-5.46-9.6-10.44-2.35-2.56-4.52-4.9-2.23-2.42-4.24-4.59-2.07-2.24-3.9-4.21-5.38-5.8-15.35-16.5 36.83-.76 5.06-.11 9.78-.16 2.38-.03 4.52-.06 2.21-.02 4.1-.04 1.98-.01 3.56-.01 1.69-.01M731.77 353.1l2.47.63 1.25.41 2.61 1.34 1.32.76 2.8 2.09 1.43 1.13 3.06 2.87 1.57 1.53 3.37 3.69 5.49 6.47 1.15 1.42 2.49 3.45 1.28 1.83 2.77 4.3 1.41 2.25 3.05 5.16 1.56 2.69 3.34 6.06 1.7 3.14 3.65 6.97 1.87 3.61 3.97 7.92 2.03 4.08 4.31 8.89 1.1 2.28 2.27 4.76 3.5 7.42 1.19 2.54 2.14 4.72 1.03 2.31 1.84 4.32.89 2.13 1.58 4.03.76 1.99 1.36 3.85 1.31 3.82 2.1 7.54 2.67 12 .23 1.2.41 2.17.2 1.05.35 1.92.33 1.86.45 3.09.18 1.47.1 2.52.01 1.22-.29 2.23-.19 1.1-.72 2.22-.42 1.13-1.21 2.49-.67 1.31-1.75 3.04-.47.8-1.06 1.77-1.75 2.91-1.96 3.25-4.13 6.26-2.11 3.09-4.43 5.94-2.24 2.93-4.72 5.63-2.39 2.78-4.99 5.31-2.52 2.6.5-.57 1.32-1.62.53-.76.96-1.5.36-.73 1.16-2.89.28-1.57.5-3.8.06-2.07-.11-.87-.33-1.63-.32-.71-.74-1.35-.53-.63-3.38-3.7-1.19-1.2-.54-.51-1.02-.96-.39-.32-.47-.43-.44-.44-.28-.29-1.27-1.31-.82-.87-1.73-1.85-.99-1.06-2.02-2.21-1.06-1.16-4.33-4.78-1.93-2.18-1.87-2.12-.78-.91-1.47-1.7-.52-.63-1.67-1.95-1.35-1.52-.73-.81-3.03-3.26-1.31-1.33-1.84-1.9-1.08-1.15-.43-.47-.78-.87-.25-.29-.37-.49v-.05l-.24-.81-.38-.73-.27-.43-1.26-1.83-.76-.93-1.54-1.78-.66-.61-.63-.55-.24-.15-.45-.22-.12.05-1.44-.08-1.22-.46-.54-.38-1.59-.8-.86-.13-.17.17-.44-.08-.19-.58v-.49l-.24-.57-.42-.06-.33.13-.77.36-.51.35-1.13.8-.71.57-1.51 1.26-.9.81-1.91 1.73-1.11 1.04-2.33 2.21-1.32 1.29-.15.15 4.07-4.97 2.17-2.83 3.77-6.01 4.73-9.53.36-.85.59-1.45.27-.69.44-1.16.2-.55.29-.9.13-.42.15-.66.12-.61-.16-.65-.79-.34h-.27l-1.01-.58-1.69-1.39-.49-.49-.58-.66-.21-.3.08-.42.13-.2.86-.38 2.31-.74.67-.2 1.15-.47.54-.25.9-.58.41-.29.63-.66.65-1.09.26-.69.48-1.68.24-.89.44-2.05.21-1.06.39-2.34.19-1.21.33-2.58.32-2.63.48-5.7.21-2.89.24-5.85.09-2.9-.01-5.5-.02-1.33-.08-2.51-.05-1.22-.16-2.25-.08-1.09-.23-1.93-.12-.92-.29-1.55-.16-.73-.37-1.1-.64-1.1-.47-.46-.66-1.14-.28-.58-.27-1.19-.08-.58.15-1.02.75-1.06.12-.08.11-.61.03-.37-.07-1.1-.06-.6-.24-1.45-.53-2.43-.31-1.23-.57-1.84-.28-.84-.59-1.18-.3-.53-.73-.72-1.36-.76-.11-.04-.47-.08-.28-.04-.83-.07-.45-.04-1.17-.06-.63-.03-1.51-.06-.79-.03-1.85-.06-.96-.02-2.18-.05-1.13-.02-2.51-.04-1.3-.02-2.84-.04-1.46-.02-3.16-.02-1.62-.02-3.48-.02-1.77-.01-3.8-.02h-1.94l-4.1-.01-2.1-.01h-6.66l-4.72.01h-2.4l-5.02.01-7.87.02-4.57.02-8.83.02-4.34.02-8.22.02-4.02.01h-1.7l2.41-.07 3.49-.12 3.43-.13 1.61-.07 3.14-.14 1.43-.07 2.75-.14 1.19-.07 2.25-.15.9-.08 1.65-.14.56-.08.95-.14.17-.08 2.19-1.07.44-.31.12-.14.18-.27-.01-.13-.09-.24-.16-.11-.37-.21-.3-.09-.68-.18-.46-.07-.99-.15-.63-.06-1.32-.12-.8-.05-1.67-.1-.97-.04-2.04-.06-1.16-.03-2.42-.05-1.35-.01-2.09-.02 19.32-.14 3.74-.03 6.89-.05 3.35-.03 6.15-.05 2.98-.02 5.44-.05 2.63-.03 4.78-.05 2.31-.03 4.15-.05 2-.03 3.57-.06 1.72-.03 3.03-.06 1.45-.03 2.53-.07 1.21-.04 2.08-.07.99-.04 1.66-.09.79-.04 1.29-.09.6-.05.96-.11.45-.05.67-.12.3-.06.43-.13.55-.44.03-.21-.16-.81-.11-.46-.4-1.2-1.85-4.32-2.7-5.5-36.25-.26-36.25-.26V369h36.21l5.04-.02 2.43-.01 4.37-.04 2.1-.02 3.7-.06 1.76-.03 3.02-.08 1.43-.05 2.34-.1 1.08-.05 1.66-.13.74-.06.97-.15.68-.24.17-.29-.18-1.16-.93-2.02-.44-.66-.68-1.91-.47-2.77v-.59l.15-.92.1-.44.43-.71.25-.34.79-.61 1.68-.93 1.21-.57 2.38-.69 1.19-.26 2.39-.05M540.84 555.21l-.81 1.07-1.35 1.71 1.57-2.03.9-1.19.1-.15M705 520.34l-1.8 1.35-3.65 2.65-1.9 1.22-3.86 2.39-2.02 1.1-4.1 2.15-2.15.99-4.37 1.93-2.3.89-4.67 1.72-2.46.79-1.88.57 6.19-2.12 3.85-1.42 7.25-3.31 3.54-1.74 6.63-3.91 3.23-2.03 5.93-4.45m-149.48 12.06-.03.04.13-.23m7.77-14.77-.78 1.51 1.22-2.51M423.58 371.99l3.47-.03 1.47-.02 2.77-.05 1.15-.03 2.13-.08.85-.04 1.56-.11.59-.07 1.06-.14.36-.08.61-.18.16-.11.24-.22v-.13l-.14-1.12-.27-.62-.28-.25-.64-.47-.51-.18-1.15-.34-.81-.13-1.79-.22-1.18-.08-2.56-.14-1.61-.04-3.47-.07-2.11-.02-2.18-.01-1.2-.01h-21.62l75.83-.5-6.26-7.78-.68-.84-1.21-1.53-.59-.74-1.06-1.32-1.03-1.27-1.8-1.99-.89-.91-1.8-1.36-.94-.62-2.2-.85-1.18-.38-2.97-.48-.81-.1-1.83-.15-.95-.07-2.15-.09-1.12-.04-2.52-.06-1.32-.03-2.94-.03-1.53-.02-3.41-.03-5.69-.04h-.11l.03-.01.62-.03 1.18-.07.47-.03.87-.08.31-.04.51-.08.11-.04 1.14-.7.39-.53v-.25l-.1-.48-.25-.16-.6-.27h-.5l-1.06-.29-.44-.44V342l-.33-.24-.54-.15-.41-.06-.9-.13-.56-.05-1.21-.1-.7-.04-3.03-.15-1.34-.03 2.19-.05 3.25-.07 5.99-.17 1.43-.05 2.64-.09 1.29-.05 2.29-.1 1.11-.05 1.88-.11.89-.05 1.4-.1.64-.05.86-.09.61-.13.16-.16-.33-.59-.26-.33-1.06-.89-.61-.47-1.67-1.11-.9-.58-2.16-1.26-1.12-.65-2.52-1.35-1.29-.68-2.76-1.36-8.55-3.8-1.82-.72-3.34-1.25-1.62-.6-3.05-1-3-.94-5.69-1.23-1.45-.27-2.98-.39-1.51-.18-3.22-.24-1.65-.11-3.59-.11-5.96-.05H384l-2.67.03-1.29.02-2.32.07-2.24.07-3.74.28-1.79.17-3.26.51-5 1.08-2.35.59-4.63 1.4-2.3.75-4.49 1.71-2.23.89-4.35 2-2.16 1.04-4.2 2.29-2.08 1.17-4.03 2.56-2 1.31-3.85 2.81-1.91 1.44-1.26 1.06 1.6-1.37 2.06-1.57 4.14-3.02 2.1-1.34 3.59-2.38 2.1-1.47.84-.62 1.52-1.17.47-.42.42-.39.12-.15.19-.25v-.07l.25-.64.38-.63.28-.38 1.35-1.68.85-.89 1.15-1.25.58-.74.19-.32.32-.63.07-.28.06-.56-.07-.25-.21-.51-.2-.25-.49-.49-.35-.25-.77-.51-.5-.27-1.07-.55-.65-.31-2.63-1.58-.63-.53-.2-.24-.32-.45-.01-.17-.26-2.19-.74-.73-1.12-.79-.82-.5-1.77-1.06-1.06-.59-2.22-1.22-1.22-.62-4.89-2.74-2.88-1.89-1.45-1.14-1.47-1.17-.77-.66-1.57-1.38-.86-.79-1.75-1.64-.97-.93-2.01-1.96-1.13-1.12-2.74-2.7-1.67-1.59-.75-.71-1.47-1.34-.66-.58-1.27-1.11-.57-.46-1.1-.88-.49-.35-.94-.66-.42-.26-1.52-.8-.58-.13-1.65-.57-1.04-.59-.5-.41-1.01-.9-.5-.58-1.02-1.25-.53-.76-2.7-3.26-.89-.84-.39-.3-.74-.5-.27-.09-1.41-.84-.59-.76v-.36l-.23-.46-.37-.2-.28-.05-1.38-.06-1 .17-2.19.46-1.32.41-2.75.93-1.49.63-2.44 1.35-2.08 1.39-1.21.9-2.53 1.93-1.38 1.11-2.82 2.32-1.47 1.27-5.47 4.83 2.2-2.06 5.34-4.62 2.7-2.27 5.61-4.36 8.72-6.23 3.02-2.04 6.18-3.82 3.12-1.86 6.38-3.45 3.22-1.68 6.57-3.09 3.31-1.5 6.75-2.73 3.4-1.32 6.92-2.36 3.49-1.13 7.09-1.99 3.57-.94 7.26-1.62 11.06-2 1.93-.3 4.48-.48 2.32-.22 5.05-.34 5.13-.29 10.78-.15h2.65l5.06.11 2.48.07 4.51.26 2.16.15 3.68.41.85.11 1.51.25 1.91.42 1.57.42 2.77.76 1.32.37 2.3.67 1.09.32 1.85.59.88.28 1.43.52.67.26 1.06.46.48.22.69.41.31.21.37.37.21.54v.38l.59.75 1.41.78.55.14.86.65.59 1.16v.25l.58.96.37.54 1.23 1.46.69.78 1.76 1.85.93.95 2.17 2.11 2.25 2.16 5.19 4.6 7.83 6.39 1.5 1.14 2.93 2.32.76.62 1.68 1.38.88.72 1.98 1.68 1.05.88 2.41 2.08 1.28 1.1 2.97 2.58 1.58 1.37 3.66 3.19.96.85 2.08 1.82 3.36 2.94 2.63 2.3 4.71 4.19 2.27 2.03 4.13 3.79 2.01 1.86 3.73 3.58 1.84 1.78 3.53 3.56 1.75 1.79 3.5 3.72 1.76 1.9 3.66 4.07 1.86 2.09 3.99 4.61 6.57 7.72 1.36 1.61 2.41 2.89 1.16 1.4 2.05 2.51.99 1.21 1.73 2.2.84 1.06 1.47 1.94 1.41 1.89 2.22 3.27 2.8 4.66.43.78 1.3 2.14.71 1.14 1.76 2.72.93 1.41 2.08 3.11 1.07 1.59 2.28 3.31 2.3 3.32 4.62 6.44 1.11 1.53 2.07 2.76 2.72 3.52 1.2 1.49 2.53 3.76.6.93 1.05 1.78 1.22 2.32.61 1.33 1.39 2.6.33.59.6.99.72 1.04.27.33.4 1.15.18.69.23 2.09.05.59.08 1.4.03.74.04 1.73.02.91.01 2.09-.01 3.57-.05 5.73-.75 11.28-.49 5.6-1.64 11.02-.94 5.48-2.52 10.77-1.38 5.35-3.41 10.51-1.81 5.22-2.54 6.07-1.49-4.36-1.73-4.09-1.49-2.87-.83-1.36-1.68-2.64-.83-1.07-.81-1.03-.38-.42-.75-.79-.34-.28-1.08-1.27-.45-.93v-.35l-.36-.84-.57-.84-.42-.51-.91-1.07-.55-.58-1.15-1.19-.63-.6-3.81-4.19-1.15-1.47-.47-.67-.85-1.3-.27-.53-2.37-3.27-.98-1.01-.5-.43-.99-.8-.46-.27-1.79-1.35-1.53-1.38-.87-.85-3.68-3.8-1.72-2.05-2.49-2.9-1.52-1.7-.64-.68-1.18-1.22-.42-.38-.69-.59h-.11l-.61-.18-.66-.28-.42-.2-1.87-.97-1.04-.62-3.78-2-2.47-1.08-1.19-.4-2.34-.72-1.09-.21-2.12-.32h-.96l-2.57-.45-.75-.3-.31-.17-.55-.38-.17-.2-1.38-.93-1.04.09-.71.38-1.33 1.04-.56.78v.31l-.19.69-.31.65-.22.4-1.06 1.72-.68.88-2.45 3.22-61.85.71 1.17-.01 8.61-.11 4.23-.06 7.99-.12 3.9-.06 7.19-.12 3.48-.07 6.21-.12 1.48-.03 2.76-.06 1.33-.03 2.45-.06 1.18-.03 2.12-.06 1.02-.03 1.76-.06.84-.03 1.39-.05.65-.03 1-.05.45-.03.58-.04.37-.07.05-.09.15-.65.08-.39.19-1.15.1-.62.21-1.5.3-2.48.72-6.25h-67.31l-8.38-.01-4.13-.01-7.86-.03-3.85-.02-7.14-.04-3.47-.02-6.25-.06-1.5-.01-2.81-.03-1.36-.02-2.52-.03-1.22-.02-2.2-.04-1.07-.01-1.88-.04-.89-.02-1.53-.04-.71-.02-1.15-.04-.53-.02-.75-.05-.65-.06-.82-.17-.2-.08.27.04.32.02.76.05.55.02 1.2.04.75.02 1.6.04.94.02 1.98.04 1.12.02 2.32.04 1.27.02 2.63.03 1.43.02 2.91.03 1.55.01 6.44.06 3.52.03 7.22.04 3.81.02 7.75.04 3.98.02 8.03.02 4.03.01 8.05.01 3.95.01h11.57l7.35-.01 3.42-.01 6.63-.03 2.96-.01 2.89-.02 1.34-.01 2.61-.02 1.19-.02 2.3-.02 1.02-.01 1.95-.03.84-.02 1.58-.03.63-.02 1.17-.04.42-.01.73-.04.19-.03.26-.04-.05-.02-.65-1.03-.13-1.16.13-.66.11-1.31-.18-.6-.29-.21-.71-.37-.62-.15-1.44-.28-1.05-.16-.79-.07-.83-.04-.56-.01-1.22-.04-.74-.01-1.58-.02-.91-.01-1.92-.02-1.07-.01-2.24-.01h-1.22l-2.53-.01-1.36.01h-4.29l-6.21.02-3.43.03-7.04.04-3.78.04-7.71.07-4.03.05-8.19.1-4.2.06-10.54.15-3.51.05 1.79-.03 3.75-.06 7.69-.12 7.72-.12 15.35-.21 3.75-.05 7.23-.09 3.55-.04 6.66-.07 3.23-.03 5.87-.05 1.41-.01 2.63-.01 1.28-.01 2.37-.01h5.95l.83.01 1.39.01 1.68.03h.24l.35-.31.16-.22.19-.84.08-.49.05-1.44-.07-2.92-.3-6.25-33.2-.26-1.99-.02-3.62-.03-1.76-.01-3.19-.02-1.54-.01-2.79-.01-1.35-.01h-3.58l-2.08.01-1 .01-1.77.02-1.7.03-2.61.09-1.19.06-1.77.17-.38.04.17-.02 1.61-.18 1.06-.06 2.32-.12 1.48-.04 1.55-.04.87-.01 1.8-.03 1.01-.01 2.08-.02 1.16-.01 2.4-.01h1.32l2.72-.01h11.03l2.89-.01h1.31l2.55-.01h1.15l2.22-.02 1-.01 1.92-.02.85-.01 1.65-.03.73-.02 2.66-.09 1.01-.06 1.82-.14.66-.09 1.18-.2.41-.13.71-.28.25-.17.44-.37.19-.22.83-1.06.28-.52-.01-.22-.1-.43-.19-.24-.47-.49-.38-.32-.7-.39-.68-.22-.49-.09-1.08-.16-.73-.06-1.57-.11-1.01-.04-2.16-.06-1.34-.01-2.85-.02h-1.72l-3.65.02-2.15.03-4.53.05-2.63.04-7.45.11-4.23.04h-5.14l-1.41-.02-2.64-.05-1.09-.05-2.05-.1-.86-.07-1.6-.17-.68-.1-1.92-.39 2.02.4.71.1 1.71.16.92.08 2.23.1 1.2.04 2.93.04 1.56.02 3.77-.01h1.01l2.2-.02 1.13-.01 2.46-.03 1.27-.01 2.75-.04 4.48-.07 1.99-.03 3.83-.07 1.88-.04 3.57-.08 1.74-.04 3.22-.09 1.56-.05 2.79-.09 1.34-.04 2.28-.1 1.08-.04 1.69-.09.77-.05 1.03-.09.7-.12.08-.07-.01-.69-.02-.41-.19-1.23-.12-.68-.34-1.62-.67-2.7-1.83-6.85-37.9-.26-2.36-.02-4.29-.03-2.08-.01-3.76-.02-1.82-.01-3.28-.02h-5.78l-2.45.01-1.17.01-2.1.03-1 .01-1.79.05-.87.02-1.53.07-1.48.07-2.38.21-1.01.1.34-.04 1.95-.22 1.13-.09 2.38-.14 1.42-.05 3.01-.09 1.83-.02 3.88-.04 2.34-.01 2.41-.01H436.64l7.23-.01 4.07-.02 1.69-.02 3.16-.05 1.28-.04 2.36-.08.92-.05 1.68-.12.63-.07 1.11-.17.38-.1.65-.21.19-.13.31-.27.06-.16.03-1.08-.43-.42h-.41l-1.1-.37-.59-.54-.11-.34-.79-.57-1.11-.29-.89-.1-2.01-.17-1.37-.05-1.44-.04-.81-.01-1.71-.02h-.95l-4.37-.07-2.44-.12-.94-.08-1.67-.2-.47-.11.69.03.65.03 1.69.05.9.02 2.11.04 1.11.01 2.45.02 1.26.02 2.7.01 2.74.01 5.86-.02 2.93-.01 5.69-.05 1.37-.02 2.6-.04 1.27-.02 2.31-.05 1.12-.02 1.93-.06.91-.03 1.47-.06.67-.04.91-.07.38-.04.26-.08.06-.05-.14-.56-.1-.34-.4-1.02-.22-.55-.58-1.32-.3-.67-.68-1.45-.68-1.44-1.34-2.57-.31-.56-.5-.83-.52-.66-.06-.04-.51.05-.31.04-.97.18-.54.11-1.39.32-.75.17-1.74.43-.92.22-2.05.53-1.06.28-2.31.61-7.58 2.1-1.44.41-2.59.74-1.26.36-2.25.64-1.09.31-1.93.56-.93.26-1.64.48-.79.22-1.37.4-.65.19-1.12.34-1.05.32.74-.39.79-.95.23-.56.31-1.14-.07-.51-.32-.94-.45-.28-1.22-.35-.63.02-.43.06-.95.16-.64.14-1.38.33-.9.23-1.95.52-.38.1 2.89-.83 5.62-1.6 2.74-.79 4.9-1.4 1.16-.33 2.08-.59 1-.29 1.71-.49.8-.23 1.27-.36 1.33-.37 4.5-1.27-3-.71-.21-.04-1.03-.1-.61-.05-1.78-.09-.97-.05-2.43-.08-1.29-.04-2.98-.08-1.55-.04-3.45-.06-1.77-.04-3.81-.05-12.37-.1L395 372h22.5m275.62 99.14 3.8.01 1.82.01 3.22.02 1.55.01 2.7.03 1.28.02 2.23.05 1.06.03 1.81.06.86.04 1.45.08.69.04 1.14.11.54.05.89.12.83.13 1.15.32 1.34.59 3.51 1.88-4.52 1.27-.79.22-2.33.33-.65.07-1.51.12-.79.05-1.81.08-.95.04-2.12.04-1.11.02-2.46.01h-1.27l-2.81-.03-4.64-.07-17.47-.36.26-.23.48-.08 3.14-.56 1.48-.39.5-.24.86-.51.26-.33.43-.72.12-.47.07-.66-.19-.36-.34-.14-.85-.25-.8-.1-.86-.09-.55-.03-1.17-.07-.72-.03-1.52-.05-.91-.02-1.92-.03-.14-.01h1.57l5.12-.01 2.47-.01h4.43M416.11 450.62l-6.06.07-2.78.04-5.41.07-2.47.03-4.8.07-2.18.04-4.21.07-1.9.03-3.68.07-1.64.04-3.16.07-1.41.04-2.69.07-1.18.04-2.25.08-.97.04-1.86.09-.78.05-1.48.09-.62.05-1.15.1-.47.05-1.56.22-.42.13-.62.26.61-.26.43-.13 1.56-.22.47-.05 1.15-.1.61-.05 1.49-.09.78-.05 1.85-.09.98-.04 2.25-.08 1.18-.04 2.69-.07 1.4-.04 3.16-.07 1.64-.04 3.68-.07 1.9-.03 4.21-.07 2.18-.04 4.79-.07 2.47-.03 5.41-.07 2.78-.04 6.06-.07 9.85-.12h.02m268.72-21.33 2.07.14.94.09 1.35.3 1.44.66.41.3.54.49.22.24.18.43.04.21-.16.48-.62.88-.26.32-.83.47-.48.21-1.44.28-.83.12-2.34.13-.65.02-1.51.03-2.62.01h-1.33l-2.52-.07-1.22-.04-2.13-.15-.99-.08-1.51-.19-.65-.11-.63-.23-.37-.23-.47-.92-.15-1.58.08-.42.43-.59.29-.26 1.18-.34.36-.08.93-.12.51-.05 1.27-.09.68-.05 1.66-.07 2.98-.09 1.86-.05 2.94-.01m-324.64 1.49-1.84.09-.76.05-1.42.1-.56.06-1.05.11-.4.06-.73.14-.27.07-.83.3-.15.19-.18.4v.23l.66 1.63.62.47-.48-.25-.8-.79-.32-.41-.15-.86.59-1.23.02-.02.37-.05.23-.02.79-.04.44-.03 1.18-.05.64-.02 1.54-.05.81-.03 1.88-.06.5-.01m-89.83-12.03-.3 3.43.14-2.32.25-2.39.45-3.71m137.55 6.29h.35m-.7-.18-.54-.29m5.36-.81 1.02-.62m.97-.43 1.54-.68h.03m.81-.18.28-.07.06-.01m266.97-7.68h3.56l1.72.01 3.09.01 1.49.01 2.65.03 1.28.01 2.25.04 1.08.02 1.88.04.9.03 1.55.06.74.03 1.25.07 1.18.08 1.61.19.7.11.85.26.72.47.29.34.27.53.09.26-.19.44-.17.21-.74.46-1.83.84-.38.16-1.13.27-.65.13-1.87.21-.53.05-1.24.09-.66.05-1.52.08-.8.03-1.84.07-.96.03-2.18.06-1.14.03-2.57.04-1.33.02-2.99.04-1.55.02-3.43.03-1.78.01-3.92.03-2.02.01-4.45.01-2.29.01-4.99.01h-2.57l-5.59.01H652.08l-7.92-.01-3.9-.01-7.36-.03-3.59-.02-6.64-.04-3.21-.03-.8-.01h1.78l3.82-.04 4.17-.05 2.57-.04 1.18-.01 4.47-.08 1.87-.04 3.49-.08 1.43-.06 2.64-.1 1.04-.07 1.91-.14.71-.08 1.29-.18.45-.1.79-.22.24-.13.41-.27.1-.16.36-1.05-.14-.6-.29-.25-.73-.47-.61-.19-1.39-.35-.96-.13-2.12-.25-1.36-.08-2.93-.14-1.79-.04-3.8-.05h-2.25l-4.75.02-2.76.04-6.13.09-3.66.04-1.64.03-3.15.04-1.4.02-2.67.04-1.18.03-1.14.02 2.22-.1 1.35-.05 3.09-.1 1.61-.04 3.64-.08 1.89-.04 4.22-.07 2.18-.03 4.85-.06 2.5-.03 5.5-.04 2.84-.02 6.21-.04 3.19-.02 6.94-.03 11.3-.04h2.81l5.18-.02h2.51l4.6-.01H691.46m177.3 1.19 2.99.07 1.12.04 1.88.06.88.04 1.44.07.66.04 1.05.11.49.05.73.14.65.16.59.48.26 1.1v.46l-.25.63-.2.28-.97.36-.3.08-.82.12-.45.06-1.15.09-.62.04-1.52.07-2.77.09-1.24.04-2.33.02h-1.11l-1.92-.06-.88-.04-1.28-.12-.55-.07-.44-.18-.19-.19-.3-.86-.21-1.52v-.43l.26-.58.22-.25 1.04-.28.32-.05.89-.06.48-.03 1.24-.01h.66m-271.59 4.08-.04-.04-.28-.79-.2-1.39v-.14l.21 1.51m-173-6.94 1.07.56 3.9 1.6h-.01l-3.89-1.6-1.07-.56-.39-.26-.7-.5.7.5m-232.58-5.21.15-1.18m203.58-.95-1.36.2h-.47l-.35-.23.12.05.31.04.68.03.45-.04.93-.11m-105.7-13.23-.99 2.26-1.76 4.66-1.69 5.2.4-1.3 1.45-4.48.83-2.19 1.74-4.33.98-2.11.79-1.55M390 397.26v-.03m.05-.15.22-.58.98-.79-.88.74m18.59-1.5.86-.16.42-.05m-219.93-.63.22-1.33.62-3.46.14-.66m404.13 4.74.51.57-.06-.02-.22-.11-.29-.34-.12-.19-.1-.53.04-1.03.01-.08m13-2.26-2.02.04-.89.02-1.69.05-.74.03-1.4.05-.59.03-1.14.07-.47.04-1.67.17-.55.11-.92.24-.26.15-.4.33-.09.21-.13.44.27-1.89 13.17-.1m-183.63-4.79-2.04.59-5.38 1.44-3.07.69-1.39.22-2.71.37-1.32.08-2.27.09 2.8-.16.78-.07 1.68-.23.86-.13 1.94-.38 1.02-.21 2.34-.55 1.23-.3 2.85-.75 1.51-.4 3.08-.85m-233.59-4.61.09-.39.17-.59m97.79-.88.69-1.35.38-.66m323.62-36.27.24.1.41.36.18.21.31.61.14.35.22.91.11.51.16 1.27.08.68.12 1.68.17 3.01.03.66.06 1.08.04.51.08.82.08.76.32.89.19.36.65.3 1.51.12h.83l1.35.29.61.18.88.61.38.34.34.87-.16 1.54-.11.28-.39.45-.22.21-.62.31-2.7.42H618v13h-3.87l-1.45-.38-.32-.12-.49-.29-.21-.15-.22-.35-.03-.09-.06-.49-.03-.29-.05-.85-.02-.47-.04-1.18-.01-.63-.03-1.46-.02-1.51v-3.68l.07-6.1.28-15.46 2.72-.31.77-.09m-320.3 32.7.09-.16.11-.17m370.93-46 1.07 1.33.19.34.18.57.06.27-.06.47-.06.23-.32.42-.79.61-.25.16-.57.55-.3.31-.62.79-1.69 2.79-.42.89-.59 1.84-.25.93-.27 1.9-.09.95.04 1.89.06.94.35 1.82.2.9.63 1.69.35.83.89 1.51.48.73 1.15 1.27 2 1.57.7.43 1.36.66.67.3 1.31.38.65.16 1.3.1.65.02 1.3-.17.66-.13 1.34-.46.68-.27 1.4-.76.72-.42 1.5-1.05 2.38-1.93.91-.79 1.44-.95.66-.37.95-.1.42.05.51.75.3 2.09v.67l-.48 1.29-.31.64-1.03 1.2-.57.59-1.47 1.07-.79.51-1.81.88-.94.41-2.06.66-1.05.29-2.19.38-1.11.15-2.23.07-1.11-.01-2.16-.3-1.04-.2-1.91-.58-.92-.33-1.67-.85-.81-.46-1.44-1.1-.68-.59-1.2-1.36-.57-.71-.95-1.6-.45-.84-.7-1.84-.33-.96-.45-2.08-.39-3.39-.11-1.8.14-3.07.13-1.47.66-2.57.4-1.24 1.26-2.31 2.63-3.41.62-.68 1.12-.88.54-.35.97-.24.46-.04m-461.67 24.93.2-.49.23-.49m7.97-16.08-3.42 6.42 2.82-5.36 1.65-3.03.78-1.31m14.93-22-6.14 8.24-2.79 4.21-4.73 7.43 1.49-2.5 1.81-2.94 3.86-5.73 1.97-2.85 4.17-5.53 2.12-2.74 4.47-5.32 2.27-2.64.99-1.05m428.73 242.82-2.64.7 2.64-.7M278.65 426.94l.1-2.41.14-2.46-.19 6.95.36 10.04-.39-7.27m116.57-43.52 2.57-.11 1.29-.05 2.54-.05 3.42.01 1.54.03h-.12l-1.42-.03h-3.42l-2.54.04-1.29.05-2.57.11-1.19.07-2.3.15 2.3-.15Z" fill="rgba(194,30,80,1)"/><path d="M506.5 653h44.75l8.99-.02 5.71-.02 2.68-.02 5.21-.04 2.38-.03 4.61-.06 2.02-.03 3.87-.07 1.61-.04 3-.08 1.14-.05 1.07-.04.44-.03.8-.05.3-.02.53-.05.15-.02.23-.05v-.03l-.01-.04.02.04v.03l-.23.05-.16.02-.52.05-.3.02-.81.05-.44.03-1.07.04-1.14.05-3 .08-1.61.04-3.87.07-2.02.03-4.6.06-2.39.03-5.21.04-2.68.02-5.71.02-8.99.02H506.5l-.79-.88m71.39-21.04 1.77 1.91 3.09 3.33 3.87 4.18 1.4 1.51 2.55 2.82 1.21 1.35.55.63-.26-.29-1.32-1.46-.8-.87-1.68-1.84-.98-1.07-2.08-2.26-1.2-1.31-2.52-2.73-1.44-1.56-2.55-2.76m86.79-2.64-.55.08-1.71.16-.96.08-2.43.16-1.3.08-2.15.11 1.45-.09 2.06-.17 4-.36 1.9-.22 2.77-.35m39.38-9.43-4.45 1.51-9.18 2.62-4.63 1.24-.55.12 2.49-.64 1.92-.54 7.99-2.32 4.04-1.3 4.01-1.31 1.75-.6M445.99 495.4l1.44 1.17.43.43.68.48.46-.03v-.19l.43.05 1.03.65.4.34.89.35 1.06-.03.13-.08.74.43.43.3 1.25 1.07.67.61 1.59 1.57 2.59 2.76.44.5 1.21 1.33.66.71 1.57 1.72.83.9 1.88 2.04.97 1.05 2.1 2.28 2.16 2.33 4.74 5.11L484 531l1.12 1.2 2.79 2.99 1.48 1.58 3.42 3.67 1.78 1.91 3.97 4.25 2.04 2.19 4.41 4.74 2.25 2.41 4.76 5.12 2.41 2.59 5.02 5.39 5.06 5.45 8.58 9.22-.33-.35-1.47-1.52-2.84-2.95-1.3-1.31-2.52-2.52-1.14-1.12-2.22-2.12-1.01-.92-1.94-1.76-.89-.74-1.71-1.4-.77-.58-1.5-1.07-.69-.42-1.32-.77-.61-.28-1.18-.48-.55-.15-1.07-.22-.5-.03-1.94.13-.92.36-1.83.91-.96.68-1.61 1-1.41.77-.82.4-3.47 1.63-1.66.66-2.84 1.18-2.14.96-1.11.53-2.22 1.06-1.04.52-2.03 1.04-.85.47-2.89 1.49-2.18 1.06-1.13.51-2.25 1.01-1.07.44-2.05.84-.86.31-2.43.94-1.42.6-.56.26-1.03.51-.32.19-.49.34v.09l-.48.44-.74.44-.55.28-1.2.58-.72.32-1.51.65-.83.33-2.32.99-1.33.63-.53.28-.93.54-.27.21-.41.37.04.1.17.23.26.32.2.23.96 1.12.73.84 1.61 1.84 1.03 1.16 2.18 2.47 1.28 1.44 2.68 3.02 1.51 1.68 3.1 3.47 1.68 1.88 3.44 3.84 1.54 1.72-1.66-1.83-2.16-2.39-4.55-5.02-2.3-2.55-4.74-5.22-4.76-5.23-9.46-10.39-2.31-2.54-4.44-4.85-6.21-6.79-2.06-2.25-3.73-4.07-1.81-1.97-3.24-3.54-1.56-1.7-2.78-3.04-1.33-1.46-2.36-2.57-1.12-1.24-1.96-2.15-.93-1.02-1.59-1.77-.75-.83-1.26-1.41-.59-.66-.96-1.1-.45-.51-.68-.81-.32-.38-.45-.57-.2-.25-.25-.37-.1-.16-.07-.19-.04-.16.32.03.79.3.56.21.6.02.01-.56-.1-.18v-.43l.03-.23.25-.52.31-.55 1.25-1.24.7-.62 1.85-1.25 3.19-1.62 1.01-.42 2.08-1.4.48-.37.84-.77.95-1.12.3-.47 1.07-1.23.6-.65 1.52-1.51 1.61-1.54 3.86-3.3.96-.8 1.87-1.47.91-.7 1.65-1.17.78-.54 1.25-.75 1.25-.47h.55l1.29-.63.65-.39 1.25-1.16.6-.62.9-1.37.6-1.91v-.49l.61-1.41.37-.72.98-1.41.5-.64.87-.77.18-.12.27-.01.19.4.01.53.33.54.19.2.5-.05.26-.1.43-.56.31-1.31v-.6l.24-.78.15-.32.52-.22.3-.03m285.55 2.93.24.57v.49l.19.58.44.08.17-.17.86.13 1.59.8.54.38 1.22.46 1.44.08.12-.05.45.22.24.15.63.55.66.61 1.54 1.78.76.93 1.26 1.83.27.43.38.73.24.81v.05l.37.49.25.29.78.87.43.47 1.08 1.15 1.84 1.9 1.31 1.33 3.03 3.26.73.81 1.35 1.52 1.67 1.95.52.63 1.47 1.7.78.91 1.87 2.12 1.93 2.18 4.33 4.78 1.06 1.16 2.02 2.21.99 1.06 1.73 1.85.82.87 1.27 1.31.28.29.44.44.47.43.39.32 1.02.96.54.51 1.19 1.2 3.38 3.7.53.63.74 1.35.32.71.33 1.63.11.87-.06 2.07-.5 3.8-.28 1.57-1.16 2.89-.36.73-.96 1.5-.53.76-1.32 1.62-.72.83-1.77 1.81-.94.93-2.27 2.08-1.2 1.08-2.84 2.43-4.96 4.11-3.46 2.82-7.23 5.26-3.67 2.56-7.65 4.74-3.88 2.3-8.05 4.22-4.07 2.05-3.09 1.34 2.73-1.38-3.7-.1-2.16-.3-1.34-.51-.74-.49-.77-.54-.43-.35-.88-.75-.51-.46-1.05-.98-.6-.59-1.27-1.25-.73-.73-6.32-5.87-2.14-1.81-.97-.77-1.83-1.42-.72-.48-1.32-.91-1.11-.79-.66-.47-1.38-.99-.76-.55-1.59-1.15-.85-.63-3.56-2.61-1.9-1.4-3.83-2.85-1.87-1.41-11.89-8.93-3.76-2.83-1.61-1.2-1.56-1.17-.68-.51-1.29-.97-.53-.39-5.22-4.5-3.06-3.2-1.17-1.5-1.1-1.47-.43-.67-.77-1.3-.24-.56-.39-1.05-.03-.4.06-.73.21-.21.1-.46-.34-.19h-.33l-.69-.29-.1-.41.16-.27.1-.61-.29-.33-.36-.14-.88-.26-.71-.1-1.59-.18-1.11-.07-2.44-.11-1.57-.04-1.63-.03-.91-.01-1.9-.02H627.34l-1.34.01-2.76.02-1.5.01-3.08.03-1.66.02-26.5.28 32-.6 1.88-.04 3.44-.07 1.67-.03 3.06-.06 1.48-.03 2.7-.07 1.31-.03 2.37-.07 1.15-.03 2.09-.07 1.01-.04 1.83-.08 1.78-.08 2.92-.19 1.37-.11 2.33-.25 1.12-.14 2-.34 6.06-1.42 2.64-.7 5.01-1.53 2.46-.79 4.67-1.72 2.3-.89 4.37-1.93 2.15-.99 4.1-2.15 2.02-1.1 3.86-2.39 1.9-1.22 3.65-2.65 1.8-1.35 3.47-2.92 5.03-4.7 1.55-1.54 2.76-2.71 1.32-1.29 2.33-2.21 1.11-1.04 1.91-1.73.9-.81 1.51-1.26.71-.57 1.13-.8.51-.35.77-.36.33-.13m-229.32-57.4.17.2.55.38.31.17.75.3 2.57.45h.96l2.12.32 1.09.21 2.34.72 1.19.4 2.47 1.08 3.78 2 1.04.62 1.87.97.42.2.66.28.61.18h.11l.69.59.42.38 1.18 1.22.64.68 1.52 1.7 2.49 2.9 1.72 2.05 3.68 3.8.87.85 1.53 1.38 1.79 1.35.46.27.99.8.5.43.98 1.01 2.37 3.27.27.53.85 1.3.47.67 1.15 1.47 3.81 4.19.63.6 1.15 1.19.55.58.91 1.07.42.51.57.84.36.84v.35l.45.93 1.08 1.27.34.28.75.79.38.42.81 1.03.83 1.07 1.68 2.64.83 1.36 1.49 2.87 1.73 4.09 1.69 4.93-5.57 11.4-.76 1.57-1.84 3.54-.95 1.79-2.02 3.67-1.01 1.81-1.96 3.36-2.6 4.22-1.67 2.56-3.84 5.53-1.93 2.74-3.76 5.08-.9 1.19-1.63 2.1-.78.99-1.33 1.62-.62.73-.92.98-.8.62h-.05l-.52-.45-.32-.3-1.02-1.01-.57-.56-1.46-1.49-.79-.81-1.84-1.92-.97-1-2.17-2.29-1.13-1.19-2.44-2.59-1.25-1.33-2.65-2.84-4.15-4.47-2.14-2.31-3.94-4.27-1.92-2.08-3.53-3.81-1.71-1.86-3.14-3.4-1.51-1.64-2.76-3-1.33-1.45-2.41-2.62-1.16-1.27-2.08-2.27-1-1.09-1.77-1.95-.85-.94-1.48-1.65-.71-.79-1.23-1.37-.58-.66-.98-1.13-.47-.53-.77-.91-.36-.42-.57-.71-.53-.66-.58-.83-.31-.71v-.15l.35-.89.22-.53.74-1.51.4-.81 1.02-1.93 1.75-3.16.62-1.08 1.13-2.08.54-1.01.89-1.78.41-.83.55-1.27.36-1.12v-.06l-.23-.12-.16-.06-.57-.1-.34-.06-.95-.09-.53-.05-1.38-.09-.74-.04-1.84-.07-.97-.04-2.33-.07-1.24-.03-2.86-.06-1.51-.03-3.44-.05-1.79-.02-4.05-.04-2.11-.02-4.7-.04-2.44-.01-5.39-.03-2.78-.01-6.12-.02-3.15-.01-6.89-.02-3.54-.01-7.69-.01h-3.95l-8.53-.01H372.37l-4.32.01h-8.04l-3.91.01-7.23.01-3.52.01-6.47.02-3.14.01-5.74.02-2.79.01-5.04.03-2.44.02-4.39.04-2.12.02-3.77.04-1.81.03-3.18.05-1.52.03-2.64.06-1.25.03-2.12.07-.99.04-1.64.08-.76.04-1.2.09-.54.04-.79.1-.34.05-.16.04.18-.09.54-.1.37-.04.81-.09.52-.04 1.11-.08.68-.04 1.43-.07.85-.03 1.78-.06 1.03-.03 2.15-.05 1.23-.03 2.54-.04 1.43-.02 2.96-.04 1.65-.01 3.4-.04 1.87-.01 3.87-.02 2.11-.01 4.35-.02 2.37-.01 4.86-.01 2.63-.01h5.4l2.9-.01h17.77l5.4-.01 2.53-.01 4.96-.01h2.31l4.53-.02 2.1-.01 4.11-.03 1.91-.01 3.7-.03 1.71-.02 3.32-.03 1.52-.02 2.95-.04 1.34-.03 2.59-.05 1.17-.02 2.24-.06 1-.03 1.92-.06.84-.04 1.6-.07.69-.04 1.31-.08.54-.04 1.02-.09.4-.04 1.36-.2.31-.11 2.01-.92.93-.63.22-.28.28-.52-.14-.17-.48-.28h-.56l-.57-.29-.04-.44.17-.27-.2-.12-.41-.08-.34-.03-.78-.07-.53-.04-1.14-.06-.71-.04-1.51-.06-.9-.03-1.87-.05-1.08-.03-2.24-.05-1.26-.02-2.6-.05-1.44-.02-2.97-.04-1.63-.02-3.33-.03-1.8-.02-3.7-.03-1.98-.01-4.05-.03-2.17-.01-4.41-.02h-2.35l-4.77-.02h-2.53l-5.13-.01-2.7-.01h-74.13l95.94-.25 99.72-.25 2.17-6.49.3-.9.52-1.65.24-.79.38-1.35.17-.61.2-.88.04-.64-.01-.01-.35-.03-.23-.01-.78-.03-.43-.01-1.18-.03-.63-.01-1.55-.03-.82-.02-1.9-.03-1-.01-2.23-.04-1.16-.01-2.55-.03-1.31-.02-2.84-.03-2.9-.04-6.58-.07-3.41-.03-7.45-.07-3.82-.03-8.16-.06-12.81-.09-4.81-.03-9-.08-4.39-.04-8.08-.09-3.91-.04-7.06-.11-1.69-.03-1.98-.03h2.47l5.91-.02 3.58-.02 1.62-.03 3.1-.05 1.36-.03 2.6-.07 1.1-.04 2.08-.09.84-.05 1.55-.11.57-.06 1-.13.29-.07.43-.15V455l.43-.71.63-.29h.41l.91-.41.16-.63-.18-.46-.38-.43-.48-.24-.4-.11-.92-.18-.66-.08-1.47-.14-.98-.05-2.14-.1-1.36-.03-2.93-.07-1.8-.02-3.84-.03-2.31-.01-2.37-.01h-4.7l3.79-.06 2.18-.04 4.8-.07 2.47-.03 5.41-.07 2.78-.04 6.06-.07 9.85-.12 65.13-.75 2.45-3.22.68-.88 1.06-1.72.22-.4.31-.65.19-.69v-.31l.56-.78 1.33-1.04.71-.38 1.04-.09m-173.5 82.1 1.53 1.03 2.27 1.54-.14-.08-.84-.54-1.6-1.04-.66-.46-1.24-.89-.49-.38-.15-.13m347.87-49.61h1.36l2.35.02 1.13.02 1.92.03.91.02 1.52.05.72.03 1.17.07.55.03.86.09.8.1.85.25.34.14.19.36-.07.66-.12.47-.43.72-.26.33-.86.51-.5.24-1.48.39-3.14.56-.48.08-.65.56-.14.23-.22.76-.11.44-.16 1.3-.07.73-.11 2-.06 1.1-.08 2.85-.01.77-.04 1.73-.01.9-.04 2-.01 1.04-.03 2.28-.05 3.77-.02 1.34-.03 2.44-.01 1.18-.03 2.15-.02 1.03-.03 1.86-.02.9-.03 1.61-.04 1.54-.09 2.4-.05 1.09-.14 1.61-.07.72-.19.98-.1.42-.26.51-.14.2-.35.18-.63.08h-.24l-.39-.07-.19-.06-.3-.32-.13-.2-.22-.7-.09-.42-.15-1.26-.06-.71-.09-1.96-.04-1.08-.04-2.81-.01-.77-.01-1.71-.01-.9v-1.98l-.01-1.03v-8.37l-.01-4-.01-1.89-.03-3.15-.02-1.47-.07-2.39-.03-1.11-.1-1.72-.05-.8-.14-1.16-.08-.53-.18-.7-.1-.31-.25-.34-.43-.2-.68-.06-1.09-.12-.5-.05-.79.07-.36.07-.54.46-.25.3-.34 1.06-.15.63-.2 1.89-.04.53-.07 1.25-.03.67-.04 1.53-.02.8-.04 1.84-.01.96-.03 2.17-.01 1.13-.03 2.52-.05 4.22-.02 1.34-.03 2.44-.01 1.18-.03 2.15-.02 1.03-.03 1.87-.02.9-.03 1.6-.04 1.55-.09 2.39-.05 1.1-.14 1.61-.07.72-.19.98-.1.42-.26.51-.14.2-.35.18-.63.08h-.24l-.39-.07-.19-.06-.3-.32-.13-.2-.22-.7-.09-.42-.15-1.26-.06-.71-.09-1.96-.04-1.08-.04-2.81-.01-.77-.01-1.71-.01-.9v-1.98l-.01-1.03V477l-32.75-.02H628l-4.36-.02-2.14-.01-4.07-.04-1.99-.02-3.7-.06-1.79-.03-3.23-.08-1.54-.04-2.66-.09-1.25-.04-2.01-.1-.91-.05-1.26-.11-.94-.18-.37-.23-.47-.92-.14-1.58.04-.23.24-.37.17-.17.73-.29.46-.13 1.55-.21.46-.05 1.11-.09.59-.04 1.43-.07.76-.04 1.78-.06.94-.03 2.17-.05 1.14-.02 2.6-.05 1.36-.02 3.08-.03 1.6-.02 3.6-.03 1.86-.02 4.14-.03 2.15-.02 4.73-.02 7.81-.05 2.87-.02 5.21-.02 2.52-.02 4.56-.02 2.19-.01 3.94-.02h1.9l3.37-.01h1.61m23.39 19.63.83.34.43.22.96.73.51.41 1.18 1.12 2.1 2.13 3.74 3.86-4.57 5.22-.63.72-1.23 1.3-.61.63-1.1 1.02-.52.47-.83.64-.82.4-.16-.01-.67-.35-.38-.22-1.01-.71-.54-.39-1.22-.97-.63-.51-1.31-1.15-.65-.58-1.19-1.13-.57-.55-.94-.97-.44-.45-.59-.7-.37-.63v-.1l.39-.59.25-.34.81-.97.45-.53 1.12-1.23 1.92-2.01.69-.71 1.18-1.15.56-.53.97-.79.46-.35.83-.41.41-.16.79-.05m-38.83 2.8 4.97 4.98-4.23 5.25-.59.72-1.18 1.31-.58.63-1.09 1.04-.52.47-.86.65-.92.41h-.21l-.71-.35-.39-.23-1-.72-1.04-.8-2.4-2.31-.58-.61-1.07-1.17-.51-.57-.84-1.02-.39-.48-.52-.74-.34-.69v-.12l.4-.6.25-.36.82-.98.46-.53 1.14-1.23 1.94-1.98 5.02-4.94m-56.12 19.89.83.07.59.03 1.28.06.8.03 1.68.06.97.03 2.02.05 1.12.02 2.31.04 1.23.02 5.16.06 2.78.01 2.79.01-2.75.02-5.59-.01-2.72-.01-4.82-.08-1.12-.02-1.99-.06-.95-.04-1.56-.08-.73-.04-1.06-.1-.46-.05-.47-.12.31.07M620.3 503h1.18l2.15.01h1.04l1.87.01.91.01 1.61.01 1.56.02 2.43.07 1.11.03 1.66.12.75.06 1.04.18.46.1.6.25.83 1.12.17.55.09 1.15-.25 1.3-.04.07-.57.11-.36.06-1.15.11-.63.05-1.64.1-.87.05-2.05.08-1.06.04-.4.01 1.09-.09.57-.07 1.04-.16.38-.1 1.25-.46.32-.32.91-1.51.21-1.08-.16-.41-.34-.42-.42-.23-.33-.1-.76-.18-.53-.07-1.18-.14-.78-.06-1.69-.09-1.06-.04-2.28-.06-1.39-.02-2.96-.04-1.76-.01-3.72-.01h.7m71.92-5.28-2.78 2.66 5.37 5.61 2.78-3.25 2.77-3.24-2.68-2.22-2.69-2.22m-44.23.09-.84.54-1.48 1.56-.45.55-.56.77-.21.35-.09.58.02.29.39.64 1.16 1.32.65.7.92.86.43.34.67.14.33-.02.71-.6.38-.4 1.01-1.37.44-.6.55-.85.22-.39.12-.61.01-.29-.31-.59-.94-1.14-.56-.62-.93-.76-.44-.31-.8-.11M286.06 471l-2.43-8.25-.01-.01.01.01m-95.42-32.73.07 2.91.16 5.8.12 2.79.27 5.49.18 2.5.36 4.82.22 2.03.23 1.96.12.86.24 1.65.12.63-.12-.63-.24-1.65-.12-.86-.23-1.96-.22-2.04-.36-4.81-.18-2.5-.27-5.49-.12-2.8-.16-5.8-.07-2.9-.05-5.18m431.85 25.32h1.59l3.49.01 1.8.01 3.93.02 6.4.04 41.28.26v5l-41.28.26-2.25.02-4.15.02-2.02.01-3.71.02h-1.8l-3.28.01-1.59.01h-4.27l-2.51-.01-1.21-.01-2.17-.02-1.04-.01-1.84-.03-.88-.01-1.54-.04-1.47-.05-2.17-.12-.97-.07-1.3-.18-.57-.1-.65-.25-.26-.13-.2-.31-.16-.41-.08-1.1.24-1.51.06-.17.4-.27.26-.13.96-.22.56-.09 1.71-.16.97-.07 2.67-.1.74-.02 1.68-.03.89-.02 1.99-.02 1.04-.01 2.34-.02h1.21l2.69-.01h1.39m-337.45-6.33.21 1.91.2 1.84.53 3.12.3 1.57.78 3.04-.31-1.15-.21-.77-.35-1.37-.09-.4-.5-2.78-.3-2.24-.13-1.27-.14-1.58m80.75 10.39.16.42.18.29.2.12.5.23.22.05-.39-.05-.4-.1-.26-.26-.25-.84v-.07m.18-1.32-.08.15.01-.06.06-.15.11-.05m114.03-23.27h1.22l2.24.01 1.07.01 1.92.02.91.01 1.58.02.74.01 1.22.04.56.01.83.04.79.07 1.05.16 1.44.28.62.15.71.37.29.21.18.6-.11 1.31-.13.66.13 1.16.65 1.03.05.02-.26.04-.19.03-.73.04-.42.01-1.17.04-.63.02-1.58.03-.84.02-1.95.03-1.02.01-2.3.02-1.19.02-2.61.02-1.34.01-2.89.02-2.96.01-6.63.03-3.42.01-7.35.01H441.4l-3.95-.01-8.05-.01-4.03-.01-8.03-.02-3.98-.02h-.19l2.52-2.19 1.32-1.22.52-.6.1-.23.08-.41-.11-.16-.31-.28-.3-.11-.87-.12-1.1-.06-.79-.03-1.73-.05-1.07-.03-2.27-.04-1.32-.01-2.74-.03h-1.51l-3.13-.01h-1.68l-7.01.02-3.78.03-4.68.05-2.84.03-1.28.02h-.68l2.52-.05 1.8-.04 4.1-.08 2.14-.04 4.8-.08 2.49-.04 5.56-.08 2.88-.05 6.38-.09 10.54-.15 4.2-.06 8.19-.1 4.03-.05 7.71-.07 3.78-.04 7.04-.04 3.43-.03 6.21-.02h4.29l1.36-.01m136.73.82.95.02 1.56.08.73.04 1.16.15.53.08.8.22.36.13.47.31.2.17.2.43-.25 1.75-.11.28-.97.46-.58.21-1.71.33-.93.14-2.19.19-1.13.08-2.39.05-1.2.01-2.33-.09-1.13-.06-1.98-.23-.93-.13-1.37-.38-.58-.2-.49-.52-.14-.36-.13-.62-.03-.3.1-.5.08-.23.37-.39.22-.17.67-.29.37-.13 1-.2.55-.09 1.38-.12.73-.06 1.78-.06 3.17-.03h1.19m-246.19 2.22v-.01m-81.66-9.27.06-1.37.08-1.07.02-.36m140.75-15.8 1.2 1.11.17.19.7.5.39.26 1.07.56 3.89 1.6 1.08.35 2.43.5.68.1 1.6.17.86.07 2.05.1 1.09.05 2.64.05 1.41.02h5.14l4.23-.04 7.45-.11 2.63-.04 4.53-.05 2.15-.03 3.65-.02h1.72l2.85.02 1.34.01 2.16.06 1.01.04 1.57.11.73.06 1.08.16.49.09.68.22.7.39.38.32.47.49.19.24.1.43.01.22-.28.52-.83 1.06-.19.22-.44.37-.25.17-.71.28-.41.13-1.18.2-.66.09-1.82.14-1.01.06-2.66.09-.73.02-1.65.03-.85.01-1.92.02-1 .01-2.22.02h-1.15l-2.55.01h-1.31l-2.89.01h-11.03l-2.72.01h-1.32l-2.4.01-1.16.01-2.08.02-1.01.01-1.8.03-.87.01-1.55.04-1.48.04-2.32.12-1.06.06-1.61.18-.75.1-1.12.25-2.51 1.11-1.03.63-1.74.79-.82.32-1.3.16h-.6l-.89-.47-.39-.31-.49-1.1-.08-.24-.22-.4-.14-.18-.49-.3-.3-.14-.96-.23-.55-.1-1.61-.16-.9-.07-2.45-.11-.68-.03-1.54-.04-.8-.02-1.82-.04-.95-.02-2.12-.03-1.1-.02-2.44-.03-1.27-.02-2.79-.03-4.61-.04-.81-.01.21-.02 1.14-.09.45-.05.82-.11.29-.06.49-.13.12-.07.15-.15-.05-.08.24-.74.82-.34.63-.04 1.13-.07.4-.07.02-.04-.06-.1-.2-.07-.51-.15-.41-.11-1-.3-.31-.2.03-.12.2-.28.29-.19.72-.44.57-.32.59-.39.16-.22-.05-.1-.21-.17-.28-.07-.65-.12-.53-.05-1.18-.09-.45-.02 21.98-.22 2.72-2.99.77-.84 1.19-1.11.55-.46.89-.39.42-.12M279.12 266.83l.28.05.37.2.23.46v.36l.59.76 1.41.84.27.09.74.5.39.3.89.84 2.7 3.26.53.76 1.02 1.25.5.58 1.01.9.5.41 1.04.59 1.65.57.58.13 1.52.8.42.26.94.66.49.35 1.1.88.57.46 1.27 1.11.66.58 1.47 1.34.75.71 1.67 1.59 2.74 2.7 1.13 1.12 2.01 1.96.97.93 1.75 1.64.86.79 1.57 1.38.77.66 1.47 1.17 1.45 1.14 2.88 1.89 4.89 2.74 1.22.62 2.22 1.22 1.06.59 1.77 1.06.82.5 1.12.79.74.73.26 2.19.01.17.32.45.2.24.63.53 2.63 1.58.65.31 1.07.55.5.27.77.51.35.25.49.49.2.25.21.51.07.25-.06.56-.07.28-.32.63-.19.32-.58.74-1.15 1.25-.85.89-1.35 1.68-.28.38-.38.63-.25.64v.07l-.19.25-.12.15-.42.39-.47.42-1.52 1.17-.84.62-2.1 1.47-3.59 2.38-2.1 1.34-4.14 3.02-2.06 1.57-4.01 3.42-1.99 1.76-3.85 3.77-1.89 1.92-3.63 4.06-1.78 2.06-3.36 4.3-1.64 2.17-3.04 4.47-1.48 2.26-2.68 4.6-3.56 6.98-.98 2.11-1.74 4.33-.83 2.19-1.45 4.48-.7 2.26-1.16 4.6-.55 2.31-.87 4.7-.4 2.35-.58 4.77-.24 2.24.11-1.46.08-1.39.02-.6.04-2.18-.04-.77-.15-1.36-.15-.45-.36-.75-.25-.21-.95-1.14-.39-.84v-.33l-.29-.66-.44-.09-.27.17-.71.01-.29-.44v-.4l-.74-1.21-1.08-.7-.7-.17-1.37-.5-1.12-.52-.66-.34-1.35-.75-.75-.45-1.55-.95-.82-.54-3.45-2.33-1.84-1.35-3.72-2.82-1.85-1.51-5.06-3.98-1.7-1.28-.75-.56-1.44-1.04-.55-.38-2.07-1.53-1.72-1.37-.95-.8-3.98-3.4-1.79-1.66-3.64-3.32-2.18-1.94-1-.85-1.91-1.62-.87-.7-1.7-1.32-.77-.57-1.51-1.06-.7-.45-1.36-.83-.65-.34-2.49-1.18-1.21-.36-1.86-.56-1.01-.3-.41-.13-1.42-.4-.47-.12-1.42-.28-.91-.08-1.06-.49-.44-.64v-.38l-.44-1.16-.65-.65-.41-.16-1.06-.11-.44.28v.28l-.27.56-.39.06-.26-.16-.48.09-.37.38-.22.35-.35.62 1.41-3.83 3.93-9.01 2.06-4.47 4.67-8.75 2.42-4.34 5.41-8.49 2.79-4.21 6.14-8.24 10.05-12.1 1.08-1.21 2.5-2.61 1.29-1.33 2.8-2.73 2.86-2.74 5.99-5.29 1.47-1.27 2.82-2.32 1.38-1.11 2.53-1.93 1.21-.9 2.08-1.39 2.44-1.35 1.49-.63 2.75-.93 1.32-.41 2.19-.46 1-.17m83 148.29.51.2.58.18.39.08-1.72-.02v-.79m280.56-5.26 1.79.04 2.93.14 1.36.08 2.12.25.96.13 1.39.35.61.19.73.47.29.25.14.6-.36 1.05-.1.16-.41.27-.24.13-.79.22-.45.1-1.29.18-.71.08-1.91.14-1.04.07-2.64.1-1.43.06-3.49.08-1.87.04-4.47.08-1.18.01-2.57.04-4.17.05-3.82.04-7.04.02h-1.68l-3.11-.02-1.5-.01-2.71-.03-1.29-.02-2.22-.05-1.04-.03-1.65-.06-.75-.04-1.01-.08-.42-.04-.3-.1-.2-.2-.31-.85-.21-1.51v-.26l-.04-.41v-.2l.2-.3.16-.14.75-.22.47-.1 1.6-.15.47-.03 1.15-.06.62-.03 1.48-.05.78-.03 1.83-.04.97-.02 2.23-.04 1.18-.03 2.67-.04 1.4-.02 3.15-.04 1.64-.03 3.66-.04 6.13-.09 2.76-.04 4.75-.02h2.25m-218.96.6-.18.74-.12 1.77v.56l.06.75.05.31.21.28.14.08.47-.13 1.07-.59.55-.35.86-.73.36-.34.23-.48v-.15l-.4-.39-.25-.2-.73-.41-.37-.2-.8-.31-1.03-.21m-56.82.64-.28.1-.82.44v-.68l1.89-.02m-168.6-32.65-.6 2.55-1.18 5.19-.53 2.63-1.03 5.25-.42 2.53-.79 4.92.34-2.7 1.77-9.89.98-4.9 1.57-6.03m248.08 3.61.45.28.32.94.07.51-.31 1.14-.23.56-.79.95-1.58.82-.54.08-.85.43-.55.8v.15l.78.26.5.12 1.67.2.94.08 2.44.12 4.37.07h.95l1.71.02.81.01 1.44.04 1.37.05 2.01.17.89.1 1.11.29.79.57.11.34.59.54 1.1.37h.41l.43.42-.03 1.08-.06.16-.31.27-.19.13-.65.21-.38.1-1.11.17-.63.07-1.68.12-.92.05-2.36.08-1.28.04-3.16.05-1.69.02-4.07.02-7.23.01H431.12l-2.41.01-2.34.01-3.88.04-1.83.02-3.01.09-1.42.05-2.38.14-1.13.09-1.95.22-.95.12-1.75.32-.87.17-1.78.43-2.93.78-1.29.36-2.22.59-1.05.28-1.77.43-.83.19-1.35.27-.63.12-1 .12-.45.04-.68-.03-.31-.04-.42-.18-.36-.21-.13-.85v-.39l.37-.74.88-.74.17-.07.08-.17v-.09l-.25-.21-.16-.1-.52-.22-1.07-.31-.64-.15-1.08-.26-.5-.13-.81-.23-.76-.22-.89-.42-.37-.23-.32-.56-.13-1.18v-.4l.25-.6.19-.28.79-.4.49-.18 1.58-.3.46-.07 1.1-.13 1.95-.21.94-.1 2.3-.15 1.19-.07 2.57-.11 1.29-.05 2.54-.04h3.42l1.42.03 2.65-.1 1.32-.08 2.71-.37 1.39-.22 3.07-.69 5.38-1.44 2.04-.59 3.4-.98 1.6-.46 2.62-.73 1.22-.34 1.95-.52.9-.23 1.38-.33.64-.14.95-.16.43-.06.63-.02m201.64 8.49h1.55l2.81.03 1.35.01 2.42.05 1.16.03 2.04.06.97.04 1.67.1.8.05 1.32.12.63.06.99.15.46.07.68.18.3.09.37.21.16.11.09.24.01.13-.18.27-.12.14-.44.31-2.19 1.07-.17.08-.95.14-.56.08-1.65.14-.9.08-2.25.15-1.19.07-2.75.14-1.43.07-3.14.14-1.61.07-3.43.13-3.49.12-7.41.22-3.71.1-7.23.14-1.76.03-3.34.04-1.63.02-3.01.01-1.46.01-2.58-.01-1.23-.01-2.04-.05-.95-.02-1.41-.08-.61-.04-.67-.11-.59-.16-.68-.75-.23-1.73.04-.27.13-.45.09-.21.4-.33.26-.15.92-.24.55-.11 1.67-.17.47-.04 1.14-.07.59-.03 1.4-.05.74-.03 1.69-.05.89-.02 2.02-.04 1.06-.02 2.38-.03 1.23-.02 2.77-.03 1.43-.02 3.18-.03 5.26-.05 2.21-.02 4.08-.03 1.98-.02 3.64-.01h1.77M420.1 367l1.2.01 2.18.01 2.11.02 3.47.07 1.61.04 2.56.14 1.18.08 1.79.22.81.13 1.15.34.51.18.64.47.28.25.27.62.14 1.12v.13l-.24.22-.16.11-.61.18-.36.08-1.06.14-.59.07-1.56.11-.85.04-2.13.08-1.15.03-2.77.05-1.47.02-3.47.03-6.08.01H395v-5h22.64m2.93-25.96 1.75.04 3.03.15.7.04 1.21.1.56.05.9.13.41.06.54.15.33.24v.27l.44.44 1.06.29h.5l.6.27.25.16.1.48v.25l-.39.53-1.14.7-.11.04-.51.08-.31.04-.87.08-.47.03-1.18.07-.62.03-1.44.06-1.5.06-3.59.07-5.93.05h-1.52l-2.62-.01-1.24-.01-2.11-.04-.99-.02-1.65-.07-.77-.04-1.24-.09-.58-.06-.89-.13-.4-.08-.59-.18-.53-.19-.38-.53-.15-.4-.05-.94.29-1.16.05-.09.43-.16.27-.07.81-.14.45-.07 1.13-.11.6-.06 1.39-.09 1.45-.09 3.46-.12 1.78-.04 3.77-.03h1.88M364.3 536.95l1.56-.22.63-.2 1.18-.45.53-.34 1.04-.75.55-.51 1.22-1.29.48-.71.05-.3-.04-.56-.23-.22-.6-.41-.55-.16-1.25-.29-.89-.11-1.97-.18-1.27-.06-2.74-.11-1.69-.02-3.59-.04h-2.13l-4.77-.02-2.62-.02-1.08-.03-2.01-.06-.82-.05-1.53-.12-.64-.09-2.22-.43-.92-.37-1.79-.85-.7-.41.46.23.88.38 1.86.55.96.25 2.26.32 1.2.15 2.95.18.8.04 1.77.07.93.03 2.05.05 1.07.03 2.37.06 3.95.09 20.5.5.3 2.62.05.42-.01.71-.04.33-.23.55-.15.26-.53.42-.31.19-.89.31-.5.14-1.33.2-.72.1-1.85.13-.99.06-2.42.08-4.38.08-10 .12 5.79-.11Z" fill="rgba(215,55,62,1)"/><path d="m508.03 563.03 1.07.22.55.15 1.18.48.61.28 1.32.77.69.42 1.5 1.07.77.58 1.71 1.4.89.74 1.94 1.76 1.01.92 2.22 2.12 1.14 1.12 2.52 2.52 1.3 1.31 2.84 2.95 1.47 1.52 3.21 3.39 1.66 1.75 3.6 3.86 5.89 6.33 2.93 3.17 5.35 5.77 2.6 2.81 4.7 5.07 2.27 2.46 4.09 4.42 1.98 2.13 3.52 3.82 1.7 1.83 3 3.25 1.44 1.56 2.52 2.73 1.2 1.31 2.08 2.26.98 1.07 1.68 1.84.8.87 1.32 1.46.62.68 1.01 1.13.47.53.73.84.34.38.51.6.45.55.41.58.17.44v.03l-.23.05-.15.02-.53.05-.3.02-.8.05-.44.03-1.07.04-1.14.05-3 .08-1.61.04-3.87.07-2.02.03-4.61.06-2.38.03-5.21.04-2.68.02-5.71.02-8.99.02H506.5l-28-31.11-1.93-2.14-3.7-4.13-1.82-2.03-3.44-3.84-1.68-1.88-3.1-3.47-1.51-1.68-2.68-3.02-1.28-1.44-2.18-2.47-1.03-1.16-1.61-1.84-.73-.84-.96-1.12-.2-.23-.26-.32-.17-.23-.04-.1.41-.37.27-.21.93-.54.53-.28 1.33-.63 2.32-.99.83-.33 1.51-.65.72-.32 1.2-.58.55-.28.74-.44.48-.44v-.09l.49-.34.32-.19 1.03-.51.56-.26 1.42-.6 2.43-.94.86-.31 2.05-.84 1.07-.44 2.25-1.01 1.13-.51 2.18-1.06 2.89-1.49.85-.47 2.03-1.04 1.04-.52 2.22-1.06 1.11-.53 2.14-.96 2.84-1.18 1.66-.66 3.47-1.63.82-.4 1.41-.77 1.61-1 .96-.68 1.83-.91.92-.36 1.94-.13m33.24 87.23-4.34.1-1.92.09-1.85.11-.84.06-1.6.14-.69.08-1.29.16-.51.1-.92.2-.31.11-.85.33-.28.13-.44.25-.03.1.08.19.28.08.73.13.65.05 1.51.09 1.08.04 2.39.05 1.58.02 1.63.02h.92l1.91.02h1.06l2.2.01h1.21l2.5.01h7.54l3.53-.02 1.5-.02 2.8-.04 1.15-.02 2.13-.07.83-.04 1.5-.09.54-.06.93-.12.27-.08.41-.15.02-.09-.06-.19-.19-.11-.94-.34-.94-.2-.61-.09-1.31-.18-.77-.08-1.62-.16-.9-.06-3.86-.25-2.17-.08-4.47-.13-2.31-.02-4.63-.02m90.15-107.06h1.04l1.9.02.91.01 1.63.03 1.57.04 2.44.11 1.11.07 1.59.18.71.1.88.26.36.14.29.33-.1.61-.16.27.1.41.69.29h.33l.34.19-.1.46-.21.21-.06.73.03.4.39 1.05.24.56.77 1.3.43.67 1.1 1.47 1.17 1.5 3.06 3.2 5.22 4.5.53.39 1.29.97.68.51 1.56 1.17 1.61 1.2 3.76 2.83 11.89 8.93 1.87 1.41 3.83 2.85 1.9 1.4 3.56 2.61.85.63 1.59 1.15.76.55 1.38.99.66.47 1.11.79 1.32.91.72.48 1.83 1.42.97.77 2.14 1.81 6.32 5.87.73.73 1.27 1.25.6.59 1.05.98.51.46.88.75.43.35.77.54.74.49 1.34.51 2.16.3 3.7.1-4.38 2.22-.87.45-2.46 1.05-1.33.55-3.2 1.21-1.67.62-3.72 1.3-1.9.65-4.01 1.31-4.04 1.3-7.99 2.32-1.92.54-3.53.91-4.61 1.05-2.24.46-4.07.77-1.99.36-3.77.61-1.87.29-3.75.48-1.9.22-4 .36-2.06.17-4.53.28-2.35.13-5.34.2-1.4.05-2.99.09-1.53.04-3.29.08-1.69.04-3.62.08-5.84.1-1.68.03-3.1.05-1.52.03-2.79.04-1.36.02-2.5.03-1.21.01-2.21.02-1.67.02.33-.01 2.39-.11.96-.08 1.72-.17.54-.11.47-.11.15-.05.21-.12v-.06l-.78-.95-1.27-.69-.98-.36-2.2-.74-1.42-.37-3.04-.75-1.81-.36-4.74-1.12-1.33-.37-.51-.16-.91-.32-.24-.11-.87-.31-.45.01-.18.13-.33.33-.14.31-.26.69-.12.5-.09.72-.01-.17-.02-1.15-.04-2.97-.02-1.59-.03-3.75-.01-1.97-.02-4.42V599.37l.02-5.41.04-8.46.26-42 26.5-.28 1.66-.02 3.08-.03 1.5-.01 2.76-.02 1.34-.01h3.64m-222.29 85.86-7.48.61 7.94-.66m181.55.1.4.2.83.29-.39-.06-.6-.21-.25-.11-.18-.27-.02-.05-.02-.16m-135.26-9.26-.39.67-.36.2-.98.42-.53.22-1.31.45-.69.22-1.6.46-.83.24-1.85.47-1.91.48-4.46.96-2.31.48-1.78.33 4.18-.87 3.08-.78 4.57-1.15 2.43-.64.92-.28 1.67-.53.57-.26.97-.51.26-.27.31-.5M203.5 356.64l.41.16.65.65.44 1.16v.38l.44.64 1.06.49.91.08 1.42.28.47.12 1.42.4.41.13 1.01.3 1.86.56 1.21.36 2.49 1.18.65.34 1.36.83.7.45 1.51 1.06.77.57 1.7 1.32.87.7 1.91 1.62 1 .85 2.18 1.94 3.64 3.32 1.79 1.66 3.98 3.4.95.8 1.72 1.37 2.07 1.53.55.38 1.44 1.04.75.56 1.7 1.28 5.06 3.98 1.85 1.51 3.72 2.82 1.84 1.35 3.45 2.33.82.54 1.55.95.75.45 1.35.75.66.34 1.12.52 1.37.5.7.17 1.08.7.74 1.21v.4l.29.44.71-.01.27-.17.44.09.29.66v.33l.39.84.95 1.14.25.21.36.75.15.45.15 1.36.04.77-.04 2.18-.02.6-.08 1.39-.17 2.4-.08 1.07-.1 2.47-.04 1.27-.01 2.78v2.83l.24 6 .15 2.97.47 5.43.13 1.27.3 2.24.5 2.78.09.4.35 1.37.21.77.52 1.92 1.92 6.68 2.43 8.25h77.91l2.7.01 5.13.01h2.53l4.77.02h2.35l4.41.02 2.17.01 4.05.03 1.98.01 3.7.03 1.8.02 3.33.03 1.63.02 2.97.04 1.44.02 2.6.05 1.26.02 2.24.05 1.08.03 1.87.05.9.03 1.51.06.71.04 1.14.06.53.04.78.07.34.03.41.08.2.12-.17.27.04.44.57.29h.56l.48.28.14.17-.28.52-.22.28-.93.63-2.01.92-.31.11-1.36.2-.4.04-1.02.09-.54.04-1.31.08-.69.04-1.6.07-.84.04-1.92.06-1 .03-2.24.06-1.17.02-2.59.05-1.34.03-2.95.04-1.52.02-3.32.03-1.71.02-3.7.03-1.91.01-4.11.03-2.1.01-4.53.02h-2.31l-4.96.01-2.53.01-5.4.01h-17.77l-2.9.01h-5.4l-2.63.01-4.86.01-2.37.01-4.35.02-2.11.01-3.87.02-1.87.01-3.4.04-1.65.01-2.96.04-1.43.02-2.54.04-1.23.03-2.15.05-1.03.03-1.78.06-.85.03-1.43.07-.68.04-1.11.08-.52.04-.81.09-.37.04-.54.1-.68.34v.17l.27.79.17.45.55 1.24.31.65.76 1.52 1.3 2.43 3.34 6 21.66.07h1.42l2.61.01 1.27.01 2.31.03 1.12.01 2.03.04.98.02 1.77.05 1.7.05 2.67.17 1.22.1 1.79.26.8.15 1.04.38.44.21.41.52.13.28-.1.69-.61 1.23-.24.38-.94.53-.31.12-.85.2-.48.09-1.26.15-.69.07-1.77.11-.96.06-2.37.08-1.27.04-3.08.07-5.51.09-1.5.02-2.76.06-1.33.03-2.4.08-1.16.04-2.04.09-.97.04-1.67.11-.79.06-1.3.12-.59.06-.91.14-.4.07-.51.15-.31.24v.14l.41.69.26.4.84 1.1.47.59 1.17 1.37 2 2.19 5.14 5.44h23.43l3.77.01 1.79.01 3.02.04 1.43.02 2.35.07 1.11.03 1.77.1.83.06 1.28.14.58.07.87.19.39.09.54.24.54.42.34.41.36 1.08-.05 1.51-.12.31-.8.46-.27.1-.77.16-.42.08-1.13.12-.61.06-1.55.08-.84.04-2.04.05-1.09.02-2.61.03-4.61.02h-2.24l-4.19.07-2.01.04-3.46.15-.8.04-1.39.09-.66.05-1.08.1-.49.05-.71.11-.61.17-.18.12-.11.32-.02.18.22.46.15.24.55.6.32.32.9.74.49.38 1.24.89.66.46 1.6 1.04.84.54 1.95 1.19 3.34 1.97 1.1.64 1.79.85.92.37 2.22.43.64.09 1.53.12.82.05 2.01.06 1.08.03 2.62.02 4.77.02h2.13l3.59.04 1.69.02 2.74.11 1.27.06 1.97.18.89.11 1.25.29.55.16.6.41.23.22.04.56-.05.3-.48.71-1.22 1.29-.55.51-1.04.75-.53.34-1.18.45-.63.2-1.56.22-3.01.16-5.79.11 7.5 1.9 1.03.26 2.49.53 1.29.26 2.76.48 1.38.23 2.69.38 3.59.4 7.74.63 5.77 6.11.32.34 1.04 1.12.59.63 1.52 1.65.81.89 1.94 2.1 1.01 1.11 2.28 2.5 1.19 1.29 2.58 2.82 1.32 1.45 2.81 3.08 2.86 3.13 6.15 6.76 3.11 3.42 6.3 6.92 3.12 3.43 5.94 6.56 1.45 1.59 2.74 3.03 1.33 1.48 2.49 2.75.79.87-.58-.64-1.2-1.31-2.32-2.53-1.05-1.13-2.02-2.2-.91-.97-1.75-1.88-.79-.83-1.51-1.59-.67-.7-1.3-1.34-.58-.58-1.11-1.1-.5-.48-1.85-1.71-.77-.62-1.43-1.09-.64-.39L422 585l-1.5-.55-3.92-1.14-1.68-.33-1.14-.19-1.2-.19-.71-.11-1.48-.23-.87-.13-2.96-.51-2.36-.47-1.27-.26-2.57-.56-1.26-.29-2.48-.59-1.1-.29-3.74-.93-2.81-.67-1.45-.33-2.9-.66-1.36-.3-2.64-.58-1.1-.22-2.14-.48-1.66-.42-.93-.25-3.96-1.09-2.27-.68-4.7-1.43-2.51-.79-5.09-1.64-2.58-.86-5.13-1.74-2.46-.86-4.82-1.71-2.17-.81-4.16-1.57-1.71-.7-1.64-.67-.7-.31-1.33-.59-.54-.27-1.93-.95-1.45-.74-.8-.41-3.38-1.74-1.88-.99-7.95-4.23-4-2.16-3.94-2.15-1.82-1.01-3.53-1.95-1.5-.85-1.44-.82-.64-.37-1.22-.71-.51-.3-.96-.57-.36-.22-.65-.41-.19-.14-2.1-1.33-.59-.31-.22-.09-.4-.15h-.11l-.49-.13-.51-.22-.34-.17-1.6-.83-1.09-.62-2.36-1.36-1.4-.84-2.93-1.78-1.61-1-3.32-2.08-1.75-1.12-3.52-2.27-1.78-1.17-3.55-2.34-1.72-1.16-3.39-2.31-1.57-1.1-17.72-11.72-12.1-7.37-5.96-3.31-3.53-1.48-1.21-.35-.54-.1-1.04-.17h-.4l-1.57-.2-1.31-.33-.74-.23-3.18-1.13-1.64-.73-3.23-1.52-1.3-.76-1.22-.75-.47-.35-.84-.67-.23-.29-.16-.06-.02.2.02.21.08.5.08.35.18.76.13.48.28 1-1.57-5.2-1-3.49-1.76-6.96-2.22-10.31-.13-.69-.24-1.65-.12-.86-.23-1.96-.22-2.03-.36-4.82-.18-2.5-.27-5.49-.12-2.79-.16-5.8-.07-2.91-.05-5.76-.01-2.84.07-5.35.06-2.59.2-4.59.06-1.08.15-1.96.26-2.58.28-2.29.8-5 .42-2.53 1.03-5.25.53-2.63 1.18-5.19.6-2.55 1.23-4.81.62-2.33 1.21-4.11.3-.97.58-1.76.29-.84.54-1.48.27-.69.49-1.15.25-.54.44-.78.22-.35.37-.38.48-.09.26.16.39-.06.27-.56v-.28l.44-.28m4.24 157.08 1.93 4.1 1.95 4.07.98 1.97 1.97 3.87.97 1.81 1.92 3.52.91 1.58 1.75 2.94-.74-1.13-3.15-5.42-1.56-2.78-3.02-5.94-1.49-3.03-2.85-6.35-1.4-3.22-1.14-2.9m396.14 16.45 3.52.07 1.42.03 2.36.07 1.11.03 1.8.07.84.04 1.3.1.6.06.9.14.4.07.56.19.24.11.3.26.3 1.11v.47l-.3.64-.12.14-.42.23-.25.1-.72.16-.4.08-1.1.12-.6.05-1.55.09-.83.04-2.08.06-3.8.1-1.71.04h-3.13l-1.49-.02-2.49-.09-1.15-.06-1.62-.18-.34-.05-.46-.11-.2-.06-.17-.13-.16-.26-.06-.88.27-1.42.13-.35.62-.48.2-.11.57-.16.31-.07.83-.11.46-.05 1.15-.06.63-.02 1.53-.02h.82m23-20.12 1.76.01 2.96.04 1.39.02 2.28.06 1.06.04 1.69.09.78.06 1.18.14.53.07.76.18.33.1.42.23.34.42.16.41-.21 1.08-.91 1.51-.32.32-1.25.46-.38.1-1.04.16-.57.07-1.46.12-.79.05-1.97.08-1.05.03-2.56.04-1.36.02-3.24.01-5.72-.01-2.78-.01-5.16-.06-1.23-.02-2.31-.04-1.12-.02-2.02-.05-.97-.03-1.68-.06-.8-.03-1.28-.06-.59-.03-.83-.07-.35-.03-.31-.07-.44-.18-.52-.76-.2-.42-.05-1.01.04-.5.41-.92 1.09-.94.11-.04.63-.08.39-.04 1.13-.08.62-.03 1.57-.07.84-.03 1.94-.06 1.02-.03 2.26-.05 1.16-.02 2.52-.03 8.2-.05h2.18m-225.12-52h1.29l2.37.01 2.31.01 3.84.03 1.8.02 2.93.07 1.36.03 2.14.1.98.05 1.47.14.66.08.92.18.4.11.48.24.38.43.18.46-.16.63-.91.41h-.41l-.63.29-.43.71v.08l-.43.15-.29.07-1 .13-.57.06-1.55.11-.84.05-2.08.09-1.1.04-2.6.07-1.36.03-3.1.05-1.62.03-3.58.02-5.91.02h-2.73l-4.66-.01-2.21-.01-3.7-.04-1.74-.02-2.85-.06-1.32-.03-2.1-.1-.96-.05-1.46-.14-.66-.07-.92-.18-.4-.1-.5-.23-.2-.12-.18-.29-.16-.42-.12-.68-.02-.33.28-.52.21-.24.87-.39.53-.17 1.62-.26.92-.12 2.54-.17.71-.03 1.6-.06.84-.03 1.9-.04.99-.02 2.2-.03 1.15-.01 2.54-.01 1.31-.01 2.9-.01H389.39m14.2-20.81h1.51l2.74.03 1.32.01 2.27.04 1.07.03 1.73.05.79.03 1.1.06.87.12.3.11.31.28.11.16-.08.41-.1.23-.52.6-1.32 1.22-2.8 2.43-23.7-.1-3.25-.01-6.14-.08-1.48-.03-2.78-.05-1.35-.03-2.46-.07-1.19-.04-2.08-.08-.99-.04-1.63-.09-.75-.04-1.1-.09-.48-.05-.51-.09-.79-.22-1.05-.81-.66-1.63v-.23l.09-.39.08-.18.4-.3.25-.14.88-.22.53-.1 1.57-.16.89-.07 2.45-.11.67-.02 1.55-.05.81-.02 1.83-.04.96-.01 2.14-.04 1.12-.01 2.47-.03 1.28-.02 2.84-.03 4.68-.05 3.78-.03 7.01-.02h1.68m-20.36-20.14 3.17.02 1.49.01 2.44.03 1.13.02 1.77.06.81.03 1.18.09.53.05.65.12.28.07.21.17.05.1-.16.22-.59.39-.57.32-.72.44-.29.19-.2.28-.03.12.31.2 1 .3.41.11.51.15.2.07.06.1-.02.04-.4.07-1.13.07-.63.04-.82.34-.24.74.05.08-.15.15-.12.07-.49.13-.29.06-.82.11-.45.05-1.14.09-.61.05-1.46.06-.77.04-1.77.05-.92.02-2.08.02-3.45.02h-1.56l-2.68-.01-1.27-.01-2.14-.04-1.01-.02-1.66-.07-.78-.03-1.24-.1-.57-.06-.89-.14-.4-.08-.58-.18-.51-.2-.38-.56-.16-.41-.08-1.09.24-1.5.12-.31.84-.45.28-.1.81-.16.45-.08 1.19-.11.65-.06 1.64-.08.89-.03 2.17-.04 1.15-.02 2.77-.02h4.9Z" fill="rgba(229,96,35,1)"/><path d="m526.5 651.38.31-.11.92-.2.51-.1 1.29-.16.69-.08 1.6-.14.84-.06 1.85-.11 1.92-.09 4.34-.1 2.23-.04 4.63.02 2.31.02 4.47.13 2.17.08 3.86.25.9.06 1.62.16.77.08 1.31.18.61.09.94.2.94.34.19.11.06.19-.02.09-.41.15-.27.08-.93.12-.54.06-1.5.09-.83.04-2.13.07-1.15.02-2.8.04-1.5.02-3.53.02h-7.54l-2.5-.01h-1.21l-2.2-.01h-1.06l-1.91-.02h-.92l-1.63-.02-1.58-.02-2.39-.05-1.08-.04-1.51-.09-.65-.05-.73-.13-.28-.08-.08-.19.03-.1.44-.25.28-.13m-264.29-1.22-.16-.42.11-1.09.7-1.49.13-.16.51-.27.3-.13.97-.21.56-.1 1.59-.16.89-.07 2.36-.12 1.29-.05 3.3-.08.89-.02 1.97-.03 1.03-.01 2.26-.03 1.17-.01 2.57-.01 1.32-.01 2.9-.01h1.48l3.24-.01h12.18l3.06.01 1.49.01 2.73.01 1.33.01 2.41.01 1.17.01 2.12.03 1.02.01 1.84.04 1.78.03 2.81.1 1.29.05 1.96.14.89.08 1.26.18.56.1.71.24.64.43.34.41.36 1.08-.05 1.51-.06.16-.37.28-.25.13-.86.22-.51.1-1.52.16-.86.08-2.35.12-.65.02-1.48.05-.78.02-1.75.04-.91.01-2.04.03-1.05.02-2.35.02-1.22.01-2.68.01-1.38.01-3.04.01h-1.56l-3.41.01h-12.87l-3.22-.01-1.56-.01-2.86-.01h-1.38l-2.52-.02-1.21-.01-2.19-.03-1.06-.01-1.89-.03-.91-.02-1.62-.04-.77-.02-1.36-.05-1.3-.06-1.91-.14-.86-.07-1.17-.19-.51-.1-.6-.25-.24-.13m-97.88-17.47-.33-.32-.3-.89-.09-.47.12-.97.11-.48.49-.81 1.08-.75.06-.02.59-.04.37-.01 1.18-.04.66-.02 1.75-.03.93-.02 2.28-.04 1.2-.02 2.78-.03 1.44-.02 3.25-.04 1.67-.02 3.68-.03 1.9-.02 4.08-.04 2.09-.02 4.46-.03 2.27-.02 4.8-.03 2.44-.02 5.11-.03 2.59-.01 5.39-.03 5.46-.03 11.6-.05 18.22-.07 6.22-.02 11.98-.04 5.89-.03 11.12-.05 2.71-.01 5.23-.03 2.58-.02 4.92-.03 2.43-.01 4.6-.03 2.25-.02 4.24-.03 2.07-.01 3.84-.04 1.87-.01 3.42-.03 1.65-.02 2.96-.03 1.42-.02 2.48-.03 1.17-.01 1.96-.04.91-.01 1.41-.03.64-.02.83-.03.55-.04.06-.03-.12-.11-.09-.07-.41-.18-.48-.2-1.69-.56-.95-.3-2.48-.72-4.34-1.17-1.56-.4-3.53-.96-1.79-.5-3.67-1.07-1.81-.53-3.37-1.03-4.24-1.38-8.62-2.96H250.1l-4.43-.01h-2.15l-3.93-.02h-1.9l-3.45-.02-1.66-.01-3-.03-1.45-.01-2.58-.03-1.25-.02-2.2-.04-1.06-.02-1.85-.06-.88-.02-1.54-.07-.73-.03-1.24-.07-1.18-.08-1.63-.2-.72-.11-.9-.25-.8-.47-.59-.59-.41-1.06.47-1.85.12-.23.35-.39.22-.18.77-.29.46-.13 1.49-.21.43-.05 1.04-.08.56-.04 1.33-.06.7-.03 1.66-.06.87-.02 2.01-.04 1.05-.02 2.41-.03 1.26-.01 2.84-.02 1.48-.01 3.32-.01 1.72-.01h3.82l1.99-.01H254.94l4.47-.01h2.17l4.02-.02h1.96l3.59-.03 1.74-.01 3.16-.04 1.54-.02 2.76-.05 1.33-.02 2.37-.06 1.14-.03 1.98-.08.95-.03 1.63-.09.76-.05 1.27-.1.59-.05.93-.12.43-.06.6-.13.26-.07.29-.15.11-.07-.01-.17-.04-.09-.29-.18-.19-.1-.56-.2-1.15-.34-.31-.08-1.29-.58-.74-.35-1.96-1.02-1.04-.55-2.38-1.33-3.76-2.19-9.22-5.53H228.9l-2.11-.01-3.82-.01h-1.85l-3.32-.02-1.6-.02-2.85-.03-1.38-.02-2.41-.06-1.16-.03-2.02-.07-.96-.05-1.65-.1-.78-.06-1.31-.13-.62-.07-1.01-.17-.47-.09-.74-.2-.68-.22-.68-.55-.25-.31-.04-.76.4-1.39.07-.19.32-.3.2-.15.73-.23.43-.11 1.3-.18.74-.08 2.06-.12 1.14-.06 2.99-.08.81-.02 1.83-.03.96-.01 2.13-.02 1.1-.01 2.44-.01 1.27-.01 2.78-.01h1.43l3.14-.01H232.83l4.28-.02 2.11-.01 3.96-.03 1.94-.02 3.57-.05 1.72-.03 3.07-.06 1.47-.04 2.5-.07 1.17-.05 1.82-.08.83-.05 1.07-.1.66-.15v-.05l-.16-.24-.11-.14-.36-.39-.4-.44-1.3-1.25-.72-.68-1.8-1.63-3.08-2.68-7.94-6.74h-69.1l-5.13-.01-2.49-.01-4.55-.01h-2.21l-4.01-.02-1.93-.01-3.5-.03-1.69-.01-3.02-.03-1.45-.02-2.58-.04-1.24-.02-2.17-.05-1.04-.03-1.8-.06-.86-.03-1.46-.07-.69-.04-1.16-.09-.54-.04-.89-.1-.83-.1-1-.24-.79-.44-.42-.5-.49-.83-.17-.4.31-.63.14-.15.51-.26.29-.13.84-.23.46-.11 1.22-.19.67-.1 1.65-.16.88-.08 2.13-.14 1.12-.07 2.66-.12 1.4-.06 3.23-.11 1.69-.05 3.85-.1 2.01-.04 4.52-.09 2.35-.04 5.24-.09 2.72-.04 6.01-.09 9.93-.14 3.7-.05 7.11-.1 3.49-.06 6.6-.1 3.22-.05 5.94-.11 2.88-.05 5.13-.1 2.45-.05 4.18-.09.98-.03 1.75-.04.84-.02 1.46-.04.7-.02 1.15-.04.54-.02.82-.03.38-.02.48-.03.31-.04.05-.05-.32-.56-.22-.35-.79-1.06-.44-.58-1.15-1.42-2.01-2.37-5.25-6.03-21.61-.27-21.62-.27-.32-2.75-.31-2.75h21.11l4.73-.07 1.12-.03 2.08-.06 1-.03 1.79-.08.86-.04 1.47-.1.68-.05 1.1-.11.49-.05.67-.12.49-.2.08-.12-.18-.74-.14-.43-.56-1.22-.32-.66-.86-1.55-1.55-2.53-.83-1.27-1.79-3.01-.91-1.58-1.92-3.52-.97-1.81-1.97-3.87-.98-1.97-1.95-4.07-1.93-4.1-3.51-8.15-.82-1.98-1.46-3.77-1.86-5.21-.55-1.65-.9-2.89-.41-1.35-.59-2.13-.13-.48-.18-.76-.08-.35-.08-.5-.02-.21.02-.2.16.06.23.29.84.67.47.35 1.22.75 1.3.76 3.23 1.52 1.64.73 3.18 1.13.74.23 1.31.33 1.57.2h.4l1.04.17.54.1 1.21.35 3.53 1.48 5.96 3.31 12.1 7.37 17.72 11.72 1.57 1.1 3.39 2.31 1.72 1.16 3.55 2.34 1.78 1.17 3.52 2.27 1.75 1.12 3.32 2.08 1.61 1 2.93 1.78 1.4.84 2.36 1.36 1.09.62 1.6.83.34.17.51.22.49.13h.11l.4.15.22.09.59.31 2.1 1.33.19.14.65.41.36.22.96.57.51.3 1.22.71.64.37 1.44.82 1.5.85 3.53 1.95 1.82 1.01 3.94 2.15 4 2.16 7.95 4.23 1.88.99 3.38 1.74.8.41 1.45.74 1.93.95.54.27 1.33.59.7.31 1.64.67 1.71.7 4.16 1.57 2.17.81 4.82 1.71 2.46.86 5.13 1.74 2.58.86 5.09 1.64 2.51.79 4.7 1.43 2.27.68 3.96 1.09.93.25 1.66.42 2.14.48 1.1.22 2.64.58 1.36.3 2.9.66 1.45.33 2.81.67 3.74.93 1.1.29 2.48.59 1.26.29 2.57.56 1.27.26 2.36.47 2.96.51.87.13 1.48.23.71.11 1.2.19 1.14.19 1.68.33 3.92 1.14 1.5.55 2.45 1.23.64.39 1.43 1.09.77.62 1.85 1.71.5.48 1.11 1.1.58.58 1.3 1.34.67.7 1.51 1.59.79.83 1.75 1.88.91.97 2.02 2.2 1.05 1.13 2.32 2.53 1.2 1.31 2.64 2.9 4.38 4.79.65.72 1.07 1.18.48.55.66.9.27.42.19.69.03.32-.36.57-.26.27-.97.51-.57.26-1.67.53-.92.28-2.43.64-4.57 1.15-3.08.78-6.63 1.38-3.38.66-7.09 1.13-3.59.52-7.36.85-11.13.92-1.2.07-2.04.14-.96.07-1.63.14-.77.08-1.26.15-.6.08-.95.17-.89.19-1.06.48-.93.98-.12.22-.58.37-.2.09-.62.15-.35.08-.99.13-.55.06-1.45.12-.79.05-2.02.1-1.08.04-2.68.08-1.43.04-3.44.06-1.83.03-4.3.05-2.27.03-5.25.03-1.38.01-2.96.02-1.51.01-3.23.01-1.65.01-3.51.01h-1.79l-3.82.01-1.94.01h-4.12l-2.1.01h-6.71l-4.78.01H311.91l-2.61.01h-40.85l-14.79-.01-3.63-.01-7.08-.01-3.5-.01-6.78-.01-3.35-.01-6.45-.02-3.17-.01-6.08-.02-2.99-.02-5.66-.02-2.78-.02-5.21-.03-2.55-.01-4.73-.03-2.3-.02-4.2-.03-2.03-.02-3.64-.04-1.75-.02-3.03-.04-1.44-.02-2.4-.04-1.11-.02-1.72-.04-.77-.02-1-.05-.4-.02m426.45-4.88-.16-.42-.06-1.38.28-2.22.12-.5.26-.69.14-.31.33-.33.18-.13.45-.01.87.31.24.11.91.32.51.16 1.33.37 4.74 1.12 1.81.36 3.04.75 1.42.37 2.2.74.98.36 1.27.69.78.95v.06l-.21.12-.15.05-.47.11-.54.11-1.72.17-.96.08-2.39.11-4.09.07h-1.06l-1.82-.02-.87-.01-1.49-.04-.7-.02-1.17-.07-.54-.04-.9-.1-.83-.11-.99-.35-.4-.2Z" fill="rgba(234,126,17,1)"/></svg>